<svg id="Layer_1" data-name="Layer 1" xmlns="http://www.w3.org/2000/svg" viewBox="0 0 365 142.15"><defs><style>.cls-1{fill:#f9dc3e;}</style></defs><path d="M317.82,191.54l-.08-.78-1.26.11.08.78ZM326.34,212l0,.43.89-.08a3.32,3.32,0,0,1,.27-1.24l-.08-.78C327.07,210.39,326.69,211,326.34,212Zm-33.24,25.8c-.05-.73-2.31-3.56-6.79-8.55-.08-.91,1.46-2.29,4.61-4.09l9-7.85c2-2.56,3.21-6.71,3.56-12.48l-.11-1.32c-.35-4-3.23-7.2-8.7-9.65-3.24-2.18-9.06-3.4-17.47-3.61q-10.44.89-27.23,7.46a110.76,110.76,0,0,1-10.51,6.63l0,.68a2.46,2.46,0,0,0,1.05-.46.6.6,0,0,1,.76.59l.67-.35.33,0,0,.29c0,.35-2.4,2.27-7.3,5.69l.38.7-.33,0-.81-.3c0,.24-.32.41-1,.46l0,.3.79,1a3.12,3.12,0,0,1-1.14-.27,5.47,5.47,0,0,0-3.34,1.83l.46-2a165.56,165.56,0,0,0,3.37-18.82l-.08-.35a13.58,13.58,0,0,1-3.26-3c0-.83,0-1.32,0-1.43l-.09-.29-.32.08q-5.34,8-20.57,27.33-11.59,13.75-12,15.29c-3.15,3.26-4.66,5.23-4.5,5.9-.83.54-1.18,1.08-1,1.67a.33.33,0,0,1-.46-.27,9.16,9.16,0,0,1-6,4.21l-2.8.65a.67.67,0,0,0-.54.8l.08.36,1.05-.25.08.3-2.37.92-4.21,1-2.21.13c-.32.32,1.76,0,.95.16l-2.75.65c-1.67.38-2.59.24-2.75-.43l-.33.08a1.55,1.55,0,0,1,0,.7l-.16-.67-2.21.51q-.24-1.54-8.95-11.16c-.11-1.24,1.94-3,6.12-5.39L176,220.74q4-5.1,4.71-16.34l-.16-1.75c-.46-5.28-4.29-9.54-11.48-12.83-4.26-2.89-11.92-4.42-23-4.67q-13.76,1.18-35.85,9.74a139.16,139.16,0,0,1-13.83,8.73l.08.92a3.7,3.7,0,0,0,1.37-.54.77.77,0,0,1,1,.75l.92-.51.46,0,0,.43c0,.44-3.18,2.94-9.68,7.53l.51.8-.46,0-1-.35c0,.27-.43.46-1.37.54l0,.49,1.08,1.18a3.78,3.78,0,0,1-1.45-.3c-2.11.19-4.15,1.7-6.18,4.56l.52.81c1.75-1.62,2.77-2.43,3.07-2.45l.11,1.32a4.11,4.11,0,0,0-1.38.54L85.16,221a36.82,36.82,0,0,1,7-5.91c1.27.33,1.94.73,2,1.16l1-.08A75.27,75.27,0,0,1,115.78,205l.08.92c-1.27,1.88-2.13,2.86-2.59,2.91a3,3,0,0,0,.68,1.7q.17,1.74-9.28,23.42-21.39,50.39-36,74.51a3.17,3.17,0,0,0,.57,1.3c2.4-.57,3.91-1.16,4.55-1.73l.52-.05.08.92.89-.09.91-.51c0,.27.33.41,1,.35l.08.92c.08.89-.43,2.24-1.51,4.1-1,1.1-2,3.42-3.13,6.95l0,.43.89-.08a56.57,56.57,0,0,0,8.84-12.75q17-5,25.93-9.78c6-.52,10.6-2.11,13.72-4.72l0-.49-2.26.68-.52.05,0-.48c4.42-.68,7.47-1.65,9.17-3q12.88-9.94,19.49-14.1,13.55-9.94,17.57-19.38c.49-.11,1-.21,1.51-.35a20.71,20.71,0,0,0,2.16-.13c-.06-.25,0-.38.29-.43,2-.22,1.06.13,2.35-.17l3.4-.78c-.22.06-.3.16-.25.38l.52-.32a.72.72,0,0,1-.27-.06l.56-.13-.27.16a3.35,3.35,0,0,0,1.24-.08l.25,1-15.45,24.55L158,285l-1.68,5.61.33-.08,1.67-.7-.54,2.18.16.65.46.56a.31.31,0,0,0-.24.43l.08.35.7-.16c1-.89,1.45-1.7,1.29-2.42a6.53,6.53,0,0,0,2.21.16l.08.35c-.67.16-1,.7-1.07,1.62l.08.35.37-.09c5.61-6.11,19.36-27.06,30.39-41.27q-.54-2.3,17.25-6.41l.37-.08q.66,2.79-2.74,13.5c-1.46,4.32-2.16,6.69-2,7.07q-2.84,8.61-2.67,9.32l-4.21,13.78A125.34,125.34,0,0,0,192,312a2.73,2.73,0,0,1,1.16.11l.59-.51c0,.24.22.32.46.27l-.24-1,1.83-.06c.54-.13,1-.8,1.37-2-.08-1.86.3-2.86,1.14-3.08,1.13-4.42,1.83-6.63,2.07-6.71q1.57-6.58,2.35-7.52c1.59-5.72,2.75-8.65,3.5-8.84l.16.7-1.16,3a147,147,0,0,1-6.14,21.27l.59,2.59.38-.08q7.51-16.19,21.64-64.05a8.37,8.37,0,0,1,4-6.53l-.54-.56-.08-.3a3.68,3.68,0,0,0,2.27-1.27c-.06-.24-1-.59-2.83-1.07l4.69-20.11a6.94,6.94,0,0,1,1.8-1.41l.08,1a2.38,2.38,0,0,0-1,.46l.89,1.26a29.27,29.27,0,0,1,5.28-4.53c1,.27,1.46.6,1.51.92l.71,0a56.74,56.74,0,0,1,15.71-8.41l.06.67c-1,1.43-1.6,2.16-2,2.18a3,3,0,0,0,.44,1.3q.12,1.33-7,17.82-16.25,38.21-27.3,56.55a2.48,2.48,0,0,0,.48,1,8.64,8.64,0,0,0,3.42-1.32l.33,0,.05.68.76-.06.67-.35c0,.19.27.27.73.24l.05.73a6,6,0,0,1-1.16,3.07c-.78.84-1.59,2.59-2.45,5.26l0,.35.7,0a42.7,42.7,0,0,0,6.71-9.71c8.6-2.53,15.15-5,19.68-7.41q6.92-.6,10.46-3.58l0-.35-1.75.51-.38,0,0-.35c3.34-.48,5.68-1.24,6.95-2.23q9.78-7.53,14.8-10.71C288.85,252.09,293.7,244.81,293.1,237.83Zm-1.77.46.24,2.72c-.33.67-.68,1-1,1.05l-.4-4.64C290.92,237.69,291.3,238,291.33,238.29ZM87.21,216.34l-.46,0-.08-.84,1.86-.16,0,.43A3.64,3.64,0,0,0,87.21,216.34Zm-9.09,90.88a5.74,5.74,0,0,0-2.88-.6l-.11-1.32c0-.51.24-.86.89-1s.94.38,1,1.25a20,20,0,0,1,2.58-2.92l1,.41C80.28,305.73,79.44,307.11,78.12,307.22Zm97.07-101.55c-.45.05-1.37-1.38-2.69-4.21l-.08-.83c.86-.08,1.75,1.32,2.69,4.2Zm-1.29-10.06-.38.89L160.34,191Q173.52,191.45,173.9,195.61Zm-55.67,47.8-1.86.16-.08-.84,1.86-.16Zm-1.51-28.71.46,0,.11,1.32c-.43,0-1,.68-1.7,1.92l-.08-.92C116.35,216,116.78,215.24,116.72,214.7Zm-3.91,9.22.17,1.75-.46,0-.16-1.75Zm-2,3.29.89-.08c-.08,1.45-.49,2.23-1.22,2.29l-.46,0A4.24,4.24,0,0,0,110.77,227.21Zm-1.54,4.58.51,0,0,.43-.84,1.4-.89.08,0-.43A1.16,1.16,0,0,0,109.23,231.79Zm-1.51,4.13-.27,2.21-.46,0L106.8,236Zm-15.12,43q-.9,4.53-1.92,4.61l0-.43A4.82,4.82,0,0,1,92.6,278.91Zm-2.78,6,0,.43c.05.6-.22.95-.81,1l0-.43C89,285.38,89.23,285.06,89.82,284.92ZM89,297.4l1.4-.13.06.48a3.8,3.8,0,0,0-1.38.54l-.89.08c0-.45.25-.8.81-1Zm39.9-12.32C121,289,116.4,291.61,115,293c-8.52,3-12.76,4.8-12.67,5.53a137.21,137.21,0,0,0-15,6.58,5.53,5.53,0,0,1-2.45-.65,4,4,0,0,1,2-3.77,8,8,0,0,1,3.8.59,36.75,36.75,0,0,1,7.33-2.4l-.08-.92-2.8.25c.35-.49,3-1.76,8.11-3.81l1.41-.13,0,.43c-2.4.22-3.72.92-4,2.19.06.56.38.8,1,.75,1.8-1.13,2.69-1.81,2.66-2q5.14-1,28.39-14.85l.08.84C132.9,282,131.58,283.14,128.91,285.08Zm-23.78,7.82a9.14,9.14,0,0,0,5.82-2.69c.65-.06,1,.18,1,.75-1.11.11-3.24,1-6.34,2.8l-.45,0Zm38.36-29.46-11.89,9.41c-8.84,5.79-13.58,8.7-14.26,8.76Q96.23,293.2,91.11,293.66l-.51,0q.65-2.38,18.82-38.49,8-.69,25.2-7.47l2.81-.24c5.79-.52,10.13.62,13,3.31l.16,1.75C148.43,258.77,146.05,262.39,143.49,263.44Zm-23.23-13.08,1.91-.16,0,.43-1.92.17Zm26.87-4.55,1.4-.14c1.3.62,2,1.16,2,1.65l0,.43C149.34,247.86,148.18,247.21,147.13,245.81Zm3.8-21.65c-1.24,1.48-4.63,4-10.19,7.58-1.83.16-8.65,2.8-20.46,8a3.75,3.75,0,0,0-1.88-.33l-.09-.83c-.13-1.7.62-3.83,2.3-6.42.91-4.85,1.91-7.63,3-8.3l9.83-22.13q-.15-2.07,6.31-3.16l1.4-.13.11,1.26c4.23-.64,6.88-1,7.9-1.1,7.82-.67,11.89.92,12.21,4.72l.89-.08-.19-2.24,1-.08c2.29,1.26,3.53,2.8,3.7,4.61.1,1.24-.57,2.77-2,4.61-.59,0-.94-.38-1-1.24l-1,.08-.21,2.69c-4,5.93-6.85,9-8.63,9.14C152.33,223,151.34,224.13,150.93,224.16Zm6,15.5a3.46,3.46,0,0,0-1.94-.75l-.11-1.32.89-.08,2,1.15A.78.78,0,0,1,157,239.66Zm6.25,7.41c.87.36,1.38.73,1.49,1.08l-.43.11,0,0a1.28,1.28,0,0,0-.27.05l-.64.51Zm.6,3.73-.08-.36,1.13-.26.08.35Zm2.72,3c1.16-.19,1.73-.27,3.88-.75l.08.35-4.09.94C166.46,254.19,166.51,254,166.54,253.84Zm4,1.7a17.56,17.56,0,0,0-4.1.57l-.08-.35,3.43-1.11,1.64-.38.16.65C170.85,255.08,171.39,255.08,170.53,255.54Zm3.64-.86a.75.75,0,0,1-.92-.54l1.05-.25a.66.66,0,0,1,.87.54ZM184,244.06l-.09-.35,1.7-.41.16.65Zm10.54,64.64a2.91,2.91,0,0,0,.08-1.08l.37-.08a.61.61,0,0,1,.84.49l.08.35ZM202,246.83l-.75-.13a22.3,22.3,0,0,1-3.08,1l-.7.16a.69.69,0,0,1-.89-.48l4.94-1.13,1.61-.76.54.62A3.69,3.69,0,0,0,202,246.83Zm3.8-1.21-.08-.35a2.13,2.13,0,0,0,.92-.59l3.5-.81.08.35A26.8,26.8,0,0,0,205.76,245.62Zm.54-7.09a2.94,2.94,0,0,0-1,.59c-.05-.24-.54-.24-1.45,0-.17-.68,2.42-1.62,7.79-2.86l.75-.16.16.64C208.81,237.83,206.71,238.45,206.3,238.53Zm9.44-10.19c-.38,4.29-1.89,6.71-4.56,7.33l-.08-.35-2.37.92-1,.24a2.56,2.56,0,0,1-1.46,0l-.21-.94q-.13-.52,10.29-14.21l.81.14C217.41,222.68,217,225,215.74,228.34Zm16.68-14.29-.32,0,0-.67,1.4-.14,0,.35A4.84,4.84,0,0,0,232.42,214.05Zm-6.87,69a4.37,4.37,0,0,0-2.16-.49l-.08-1c0-.35.19-.59.65-.73s.73.27.78,1a11.94,11.94,0,0,1,1.94-2.23l.73.29C227.14,281.93,226.52,283,225.55,283.09Zm73.7-77.1c-.35,0-1-1.05-2.08-3.23l-.05-.68c.68-.05,1.38,1,2.08,3.16Zm-1-7.71-.32.7-10-4.18C294.64,195,298.09,196.18,298.28,198.28ZM256,234.59l-1.4.14-.05-.68,1.4-.1Zm-1.15-21.8.37,0,.08,1c-.35,0-.78.52-1.29,1.46l-.05-.68A3.16,3.16,0,0,0,254.83,212.79Zm-2.94,7,.1,1.33-.37,0-.11-1.32Zm-1.59,2.51.7-.05c-.08,1.13-.38,1.72-.89,1.78l-.38,0A3.77,3.77,0,0,0,250.3,222.3Zm-1.14,3.45.33,0,0,.34-.61,1.08-.71.06,0-.35C248.9,226.8,249.22,226.43,249.16,225.75ZM248,228.88l-.24,1.72-.32,0-.14-1.7Zm-11.51,32.7c-.46,2.26-.94,3.42-1.45,3.48l0-.3A3.86,3.86,0,0,1,236.52,261.58Zm-2.13,4.55,0,.3c.05.49-.16.76-.65.78l0-.35C233.72,266.51,233.93,266.27,234.39,266.13Zm-.59,9.49,1.08-.08,0,.35a3.05,3.05,0,0,0-1.05.41l-.7.05C233.12,276,233.34,275.73,233.8,275.62Zm30.27-9.35q-8.9,4.41-10.57,6c-6.47,2.26-9.67,3.66-9.62,4.23a99.28,99.28,0,0,0-11.29,5,4.24,4.24,0,0,1-1.86-.52,2.86,2.86,0,0,1,1.56-2.8,6,6,0,0,1,2.88.43,31.1,31.1,0,0,1,5.58-1.8l-.05-.68-2.21.16c.27-.37,2.34-1.35,6.2-2.91l1.08-.08,0,.3c-1.83.16-2.85.7-3.07,1.67a.6.6,0,0,0,.76.59c1.34-.89,2-1.4,2-1.56q3.89-.69,21.54-11.3l.05.68C267.09,263.92,266.09,264.79,264.07,266.27ZM246,272.2a7.3,7.3,0,0,0,4.48-2,.59.59,0,0,1,.75.59,17.26,17.26,0,0,0-4.8,2.05l-.38,0Zm29.17-22.4-9,7.22c-6.71,4.4-10.35,6.61-10.92,6.66q-16,8.82-19.92,9.14l-.37,0q.48-1.83,14.31-29.23,6-.52,19.11-5.71l2.19-.19c4.39-.38,7.68.49,9.83,2.56l.11,1.32C278.9,246.24,277.12,249,275.18,249.8Zm-17.63-9.92,1.4-.14,0,.35-1.4.14ZM278,236.4l1.08-.08c1,.48,1.51.92,1.54,1.27l0,.29A3,3,0,0,1,278,236.4ZM280.78,220c-.94,1.14-3.5,3.08-7.68,5.77-1.4.14-6.58,2.13-15.52,6a3.73,3.73,0,0,0-1.43-.19l-.06-.67c-.11-1.29.46-2.91,1.7-4.88.7-3.72,1.48-5.79,2.29-6.28l7.52-16.82c-.08-1,1.51-1.81,4.75-2.43l1.08-.08.08,1c3.18-.52,5.17-.81,6-.89,5.93-.52,9,.67,9.27,3.58l.7,0-.13-1.62.7-.05c1.73.94,2.64,2.07,2.75,3.42a5.54,5.54,0,0,1-1.43,3.53c-.46.06-.73-.27-.78-1l-.7.06-.22,2c-3,4.55-5.17,6.9-6.55,7C281.89,219.12,281.14,220,280.78,220Zm3.16,11.22-.08-1,.7,0,1.51.92c0,.43-.19.67-.65.72A2.76,2.76,0,0,0,283.94,231.2ZM158.45,296.68l-.7.16-.59.51a.62.62,0,0,0,.84.49c.45-.11.64-.38.53-.81Zm-2.66-5.31.08.35c.45-.11.64-.38.53-.81l-.08-.35A.62.62,0,0,0,155.79,291.37Zm19-45.16.81-.19-.16-.7-.81.19Zm244.61,20.54c-8.19,1.84-9.22,1.51-10.94,1.65l.05.67.76-.05.4,0-.11-.08.89-.35c8.12-.89,9.06-.57,9-1.48Zm-44.13,5.85.06.68h.1l0-.68Zm-5.07-17.76-.72-.24a12.4,12.4,0,0,0-.87,2.8l0,.3C369.18,257.67,369.69,256.7,370.17,254.84ZM421,266.62l.06.67,1.18.22,0-.68Zm-55.77,6.82-1.83-.22-.33.7,0,.35,10.92-.91-.06-.68Zm-5-23.91,0-.35-.38,0-.67.44.38.64C360.12,250.23,360.36,250,360.31,249.53Zm65.91,12.13.51-.06c.3,0,.43-.26.41-.7l-.3-.64a8.66,8.66,0,0,0-4.23,1.08l0-.35-2.24.21c0-.67-.24-1-.54-1l-1.16.11c-1.34.11-2,.06-2.66.57,0-.25-.11-.35-.25-.35l-1.29.1-.76.44c0-.25-.1-.35-.24-.35l-.46.4,0-.35-1.81-.14-.43,0,0,.68.92.24.86-.06a1.55,1.55,0,0,0,1,.22l.75-.38,0,.3a56.05,56.05,0,0,1-7.12,1.35,1.17,1.17,0,0,0-.72-.3l-.06.05a.57.57,0,0,1-.54-.59l1.51-.19a9,9,0,0,0,1,.27c1.21-.59,1.26-.83,1.91-.89l0-.67c-4.15.81-2.48.27-7.69.73l-.24,0-.05-.67c6.68-.81,4.45-.35,6.74-1,0,.24.11.35.24.35a1.62,1.62,0,0,1,.92-.46l.45,0c2.35-.19,3.13.27,7.77-1l0,.3.75-.38.7,0c-.05-.68,1-.78,1.32-.81l-.05-.73c-8.14,1.65-10.27,1.19-12.54,1.83l0-.29a9.81,9.81,0,0,1-2.75.24,1.42,1.42,0,0,0-.68.43c0-.24-.11-.35-.27-.35a.4.4,0,0,0-.13,0l-6.9,1.13c0-.19-.11-.3-.27-.27-3.59.76-2.62.89-7.42,1.32a2.41,2.41,0,0,0-.89.38c0-.19-.13-.3-.37-.27l-2.94.24-2,.49c0-.19-.13-.3-.38-.27a16.74,16.74,0,0,1-2.85.54h-.06c-.48.05.25-.14-.13-.3l-.6.35c-.86.08-.4-.05-3.36,0-5.21.65-4.64.73-5.21.76l-1.94-.14a.27.27,0,0,1-.3.33c-2.21-.3-3.34-.65-3.37-1,.3-2.11.81-3.18,1.54-3.24l.38,0-.32.71.37,0c.7-.38,1-.73,1-1.05l-.05-.73-.7.05-.06-.67a2.46,2.46,0,0,1,.22-1.35l1.59-2.56.05.67.76-.05-.06-.67-.43-.62a2.79,2.79,0,0,1,1.35-.79l0-.35-1,.09-.08-1c2.05-4.26,3-6.74,3-7.44l.73.3c.46,0,.67-.3.65-.78l-.7.05,0-.3a2.59,2.59,0,0,1,.27-1.43,4.51,4.51,0,0,0,1.51-3.53c.21,0,.32.08.35.33.94-.54,1.67-2,2.21-4.34q2.5-4.53,7.14-18.09c5.93-16,5.69-17.66,6.53-21.43l-.7.05a2.54,2.54,0,0,1-.27,1.38,2.75,2.75,0,0,0-1.14-.27l0-.3a8.19,8.19,0,0,1,1.75-5l.32,0,.6,2.32.7,0a20.24,20.24,0,0,1,.54-2.78c0-.35-.3-.57-.84-.59l-.67.43a36.12,36.12,0,0,1,0-3.78l-.35,0a2.67,2.67,0,0,1-.92-1.48l-3.85.38a3.61,3.61,0,0,0-.43-1.19c0-.35.83-.7,2.61-1l.78.3.73-.44c0,.25.16.35.43.33l.73-.43c0,.24.16.35.43.32l.35,0-.05-.78a39.29,39.29,0,0,1-4.23,0l-.73.49,0-.43q-27.13,2.22-30.81,2.56c-.32,0-1.59,0-3.83-.06,0,.3-.24.46-.78.52l-.78-.35-2.64.67a17.94,17.94,0,0,1-3.13-.13,2.7,2.7,0,0,1-1.48.56c-.33,0,3.85-.21,7.73-.48a3.53,3.53,0,0,1-1.88.59,2.64,2.64,0,0,1-1.54-.27,44.06,44.06,0,0,1-5.72,1.35l-.78-.3-12.61,1.94a3.22,3.22,0,0,0-1.7-.27,21.7,21.7,0,0,0-3.37.73l-6.09,2.53.45.76A3.35,3.35,0,0,0,320,191l2.16.19-.27,2a5.47,5.47,0,0,0-3.48,3.89c-3,1.32-4.47,2.26-4.47,2.83l0,.35.45,0,.81-.43.95,1.13.13,1.56c.06.49-5,11.08-15.07,31.79-8.73,19.95-13.31,30.86-13.75,32.83-3,.84-4.71,2.05-5.23,3.67.06.51.95.86,2.67,1l.08.79-.78,1.29.14,1.56q.12,1.21,6.55,1.86c0-.27.11-.43.4-.45a23.7,23.7,0,0,1-.81,5.66l.46,0c1.78-2.43,2.62-4.1,2.54-5l.37,0c.43,0,.89.46,1.43,1.51q-.81.31-5.66,12.88l.46.76.46,0q5.94-15,7.46-16.63,7.81-.69,27-2.75l.81-.49a.39.39,0,0,0,.48.38l.84-.08.81-.48c0,.27.19.4.48.37l9.68-.83c2.56-.22,3.77-1,3.67-2.32,0-.35,1.48-.76,4.52-1.19a3.94,3.94,0,0,1,1.33.25c0-.25,1.51-.49,4.58-.76.08-1.62.59-2.48,1.51-2.56l-.08-.78a13.09,13.09,0,0,0-3,.67,18.14,18.14,0,0,1-3.85-.46,3.62,3.62,0,0,1-1.24.49l-6.74.21-.81.44c0-.25-.19-.35-.49-.33l-.37,0-.87.43c0-.24-.72-.43-2.13-.62l-.86.51-1.67.14,0-.43q13-1.42,12.86-3.53c.57-.06.86.21.92.78l2.53-.65-.08-.78-20.78.56a.39.39,0,0,1-.41.46l-2.53-.21a3,3,0,0,0-1.62.56l-.94-.35a28.53,28.53,0,0,0-5.85.95,36.09,36.09,0,0,0-5.93.08l-4.67.4-2.15-.24c-.11-1.38,2.56-8.14,8.06-20.27,1.59-4.1,3-6.66,4.45-7.63a3.15,3.15,0,0,1,1.32.32l3.31-1.13,1.7.27a38.82,38.82,0,0,0,10-2.45,4.64,4.64,0,0,1,2.16.18l2.54-.59,7.54-.65a50,50,0,0,0,10.46-2.13l-.08-.78c-1.4.14-2.13-.1-2.18-.67-.08-1-1.11-1.48-3.07-1.32l-.09-.78,2.08-.6,5.45-.46-.09-.78c-.21,0-1.32,0-3.36-.08l-.09-.83,2.11-.19c.56-.06.81-.33.75-.86-2.83.08-4.26-.06-4.28-.44q-29.61,1.46-29.68.54a3.42,3.42,0,0,0-1.24.54l-.52-.81q7.84-16.65,9.2-16.79a4.76,4.76,0,0,1-.68,2.08l0,.34.83-.08c2.08-5,3.83-7.52,5.29-7.62,6.2-.54-.86-1,12.4-3a2.55,2.55,0,0,0,1.18.32q7.81-1.57,21.76-3.29l-.06-.78-5,.46,0-.78a2.75,2.75,0,0,0,1.48-.57l0,.43a2.83,2.83,0,0,0,1.13-.54,3.58,3.58,0,0,1,2,.24,30.23,30.23,0,0,1,4.15-.83l3.1-.3c.76-.48,1.11-.91,1.08-1.32l0-.35a9.74,9.74,0,0,1-2.72-.16.79.79,0,0,1,.7-.86l5.77-.54,2.64-.68c0,.3.16.41.38.41a3,3,0,0,0,1.13-.54c.14,0,.3,0,.43.05a22.11,22.11,0,0,0-1.16,3.16l-.75.05a3.25,3.25,0,0,0-.43-1.37l-.38,0c-7,19.52-10.14,28.6-16.6,43.59-1.19,3.83-2.19,6-3.05,6.42a.6.6,0,0,0,.75.59,9.34,9.34,0,0,1-1.32,5.58c-3,8.63-5,13.35-6,14.21l.67,4.07c0,.43-.18.67-.64.73l-.7.05c-.11-1.13-.52-1.67-1.24-1.59l-.38,0a16,16,0,0,0-2.08,5l.7-.05a2.33,2.33,0,0,0,1.3-2.18l1.4-.14.81.3a4.31,4.31,0,0,0-.89,2.45l.38.65-.92,2.15,0,.36a4.27,4.27,0,0,1,2.64.75,4.68,4.68,0,0,0,2.13-.86c.81-.08,3.83-.11,9-.11l2.61-.89a62.16,62.16,0,0,0,6.45-.19l1.13-.11.59-.4,0,.35a18.16,18.16,0,0,1,5.34.21l0,.36-1.59.13.06.67a2.22,2.22,0,0,0,1.26-.48c.41,0,.65.19.68.67a9.86,9.86,0,0,0-2.19.49l-.7-.24c-1.1.29-.86.37-1.61.43l-1.11-.22a.26.26,0,0,1-.27.32.58.58,0,0,0,.68.62l1.13-.1,5.9-.52,2.24-.48c0,.19.11.3.3.27l1.07-.41,2-.16c1.56-.13,1.53-.24,4.93-.78,0-.21.05-.3.21-.32l0,.29c5.53-.94,5.88-1,6.77-1.29l.08.16c1.37-.32.59-.24,1-.51,0,.24.11.35.24.35l1-.08-.05-.73-2,0,0-.05a1.6,1.6,0,0,1-.21.05h-.27v.06a10.23,10.23,0,0,1-2.21.16l-4.94.27,0-.35,2.75-.38,1-.08.57-.4,0,.35c3.88-.33,5.25.64,23.21-3.18,1-.08.89-.89,1.51-2.56a1.77,1.77,0,0,1-.95-.22c-1.48.57-2.26.3-5.12.75-.24,0-.43-.18-.51-.62l0-.29,2.75.08a7,7,0,0,0,3-1C426.43,261.55,425.9,261.69,426.22,261.66Zm-132.74,2.13-1.27.11c0-.52.62-2.46,2-5.77l.83-.08C295.1,258.83,294.59,260.74,293.48,263.79Zm1.54-6.15,0-.35c0-.43.24-.73.84-.86l0,.35C295.88,257.29,295.61,257.59,295,257.64Zm16.85,13,0,.35-2.1.19,0-.35Zm-2.54-.21c0,.43-.62.91-2,1.4l-2.59-.19-.83.08-.08-.78Zm17-78.42-1.27.11,0-.43c0-.44.21-.73.75-.87l.46,0,.86.35C327.18,191.68,326.94,192,326.37,192Zm19.27-3.78.41,0,.05.78-1.16.11A.81.81,0,0,1,345.64,188.25Zm-4.85,1.7-1.91-.21,0-.35a21,21,0,0,0,4.88-.92c0,.3.3.4.78.35l.06.78-.76.08a2.52,2.52,0,0,1-1.54-.27A3.16,3.16,0,0,1,340.79,190Zm2.4,7,0-.35,3.1-.29,0,.35Zm3.32-2.69,0-.43,1.51-.14,0,.43Zm.35-5.28-.41,0,.35-.83,3.45-.33,0,.43A21.57,21.57,0,0,0,346.86,189Zm1.75,7.44-.05-.79,1.5-.13c.52,0,.79.19.81.73Zm9.14-12.46-1.94.54-.35,0a20.46,20.46,0,0,1-3.51-.08C354.46,184.26,356.86,184.08,357.75,183.94Zm-2.08,8.63,0,.35-2.67.24,0-.35Zm4.37,2.07c0-.32-.54-.54-1.59-.64l-2.67.75-2,.08c-.46-.32-.7-.54-.73-.7l2.38.14,5.33-.87,2.73.11,0,.43A15.66,15.66,0,0,0,360,194.64Zm27.47-7.09c.32,0,.54,0,.62,0a10.31,10.31,0,0,1,3.21-2.16c-1,4.26-2.48,7.42-4.56,9.47l-1.51-.92A49.66,49.66,0,0,0,387.51,187.55Zm-4.64,8,.38,0c-.51,1-1,1.48-1.35,1.51l-.08-1A2.35,2.35,0,0,0,382.87,195.51Zm-3,7.14c.73-2.91,1.43-4.56,2.08-5l0,.35c-.38,2.7-1,4.13-1.75,4.24l.13,1.69a3.84,3.84,0,0,0-.91,2.16l-.38,0-.22-2.35C379.29,203.73,379.64,203.35,379.88,202.65Zm-1.16,3.88a9.56,9.56,0,0,1-.78,2.8l-.38,0-.08-1C378,207.15,378.42,206.56,378.72,206.53ZM357,269.66l0-.29.7-.06.08,1C357.34,270.37,357.07,270.15,357,269.66Zm31.08.81c0-.24-.14-.35-.38-.32l-1.75.16,0-.35h.16l4.15-.35,0,.35A3.67,3.67,0,0,0,388.05,270.47Zm-2.08-.86c.16.08.08.16,0,.22S385.78,269.72,386,269.61Zm.22-4.85-2.32.19,0-.35,2.1-.19,1.84-.46c0,.22.13.3.38.27,2.18-.38,2-.49,3-.57.36,0,.57.19.6.62Zm8.11-.7a9,9,0,0,0-2.29-.16l0-.3,2.08-.19,0,.3C393.87,263.73,394.65,263.79,394.3,264.06Zm.16-.38,0-.3,1.13-.1,0,.29Zm2.51-.22,0-.29a2,2,0,0,0,.81-.43.8.8,0,0,1,.92.75Zm3.21-.4,0-.35,1.38-.11,0,.35Zm1.91-.16c0-.41.14-.65.49-.7l.46.59c0-.19,0-.3.21-.32l.35.64Zm-20.35,8.79-.05-.68-.22,0,0,.67Zm47.36-12.27c.22-.13.33-.27-.19-.35-.24.27.27.35-.26.38l0,.24.3-.21-.3.24v0l-.56.73,1.13-.4h.13l-.05-.68Zm2,1.54-.21,0,.05.67,1.59-.14C432.47,261.09,431.42,261,431.07,261Zm-2.45-1.19,0,0v0Z" transform="translate(-67.5 -178.93)"/><path class="cls-1" d="M325.13,209.87l0,.44.89-.09a3.36,3.36,0,0,1,.27-1.24l-.08-.78C325.86,208.23,325.48,208.8,325.13,209.87Zm-8.52-20.48-.08-.79-1.27.11.08.78Zm-24.72,46.28c-.05-.73-2.32-3.56-6.79-8.54-.08-.92,1.45-2.29,4.61-4.1l9-7.85c2-2.56,3.21-6.71,3.56-12.48l-.11-1.32c-.35-4-3.23-7.19-8.71-9.65q-4.84-3.27-17.46-3.61-10.44.88-27.23,7.47a112,112,0,0,1-10.51,6.63l.05.67a2.38,2.38,0,0,0,1-.46.61.61,0,0,1,.76.6l.67-.35.32,0,0,.3c0,.35-2.4,2.26-7.3,5.68l.37.7-.32,0-.81-.29c0,.24-.32.4-1,.45l0,.3.78,1a2.88,2.88,0,0,1-1.13-.27,5.45,5.45,0,0,0-3.34,1.83l.46-2a165.18,165.18,0,0,0,3.37-18.82l-.09-.35a13.92,13.92,0,0,1-3.26-3,9.71,9.71,0,0,0,0-1.43l-.08-.3-.32.08q-5.34,8-20.57,27.34-11.61,13.74-12,15.28c-3.15,3.26-4.66,5.23-4.5,5.91-.84.53-1.19,1.07-1,1.67-.25.05-.41,0-.46-.27a9.19,9.19,0,0,1-6,4.2l-2.81.65a.67.67,0,0,0-.53.81l.08.35,1.05-.24.08.29-2.37.92-4.21,1-2.21.13c-.32.33,1.75,0,.94.17l-2.75.64c-1.67.38-2.58.25-2.75-.43l-.32.08a1.55,1.55,0,0,1,0,.7L168,245l-2.21.51q-.25-1.53-8.95-11.16c-.11-1.24,1.94-3,6.12-5.39l11.8-10.38q4-5.1,4.72-16.33l-.16-1.76c-.46-5.28-4.29-9.54-11.49-12.83q-6.37-4.32-23-4.66-13.76,1.17-35.86,9.73a136,136,0,0,1-13.82,8.73l.08.92a3.76,3.76,0,0,0,1.37-.54.78.78,0,0,1,1,.76l.92-.52.46,0,0,.43c0,.43-3.18,2.94-9.67,7.52l.51.81-.46,0-1-.35c0,.27-.43.46-1.37.54l0,.49,1.08,1.18a4,4,0,0,1-1.46-.29c-2.1.19-4.15,1.7-6.17,4.55l.51.81c1.76-1.61,2.78-2.42,3.08-2.45l.1,1.32a4.67,4.67,0,0,0-1.37.54l1.1,1.67a36.46,36.46,0,0,1,7-5.9c1.27.32,1.94.73,2,1.16l1-.08a75.13,75.13,0,0,1,20.65-11.16l.08.91c-1.27,1.89-2.13,2.86-2.59,2.91a2.94,2.94,0,0,0,.67,1.7q.17,1.74-9.27,23.43-21.39,50.39-36,74.51a3.19,3.19,0,0,0,.57,1.29,12.24,12.24,0,0,0,4.55-1.72l.51-.06.09.92.88-.08.92-.51c0,.26.32.4.94.35l.09.91c.08.89-.44,2.24-1.51,4.1-1,1.1-2,3.42-3.13,7l0,.44.89-.09a56.34,56.34,0,0,0,8.84-12.75q17-5,25.93-9.78c6-.51,10.59-2.1,13.72-4.72l0-.48-2.27.67-.51.05,0-.48c4.42-.67,7.46-1.65,9.16-3q12.9-10,19.49-14.1,13.54-9.94,17.58-19.38l1.51-.35c1.26-.06,2-.09,2.15-.14a.33.33,0,0,1,.3-.43c2-.22,1.05.13,2.35-.16l3.39-.78.57-.14-.27.16a3.15,3.15,0,0,0,1.24-.08l.24,1-15.44,24.56-3.43,4.28-1.67,5.61.32-.08,1.68-.7-.54,2.18.16.65.46.57c-.22.05-.3.18-.25.43l.08.35.71-.16q1.53-1.33,1.29-2.43a6.26,6.26,0,0,0,2.21.16l.08.35c-.67.16-1,.7-1.08,1.62l.08.35.38-.08c5.61-6.12,19.36-27.07,30.38-41.27q-.52-2.31,17.25-6.42l.38-.08q.65,2.79-2.75,13.51c-1.45,4.31-2.15,6.68-2,7.06-1.88,5.74-2.77,8.84-2.67,9.33L197,287.51a125.58,125.58,0,0,0-6.25,22.29,2.85,2.85,0,0,1,1.15.11l.6-.51c.05.24.21.32.46.27l-.25-1,1.84-.05c.54-.14,1-.81,1.37-2.05-.08-1.86.3-2.86,1.13-3.07,1.13-4.42,1.84-6.63,2.08-6.72q1.58-6.58,2.34-7.52c1.59-5.71,2.75-8.65,3.51-8.84l.16.7-1.16,3a145.54,145.54,0,0,1-6.15,21.27l.6,2.59.38-.08q7.51-16.17,21.64-64a8.35,8.35,0,0,1,4-6.52l-.54-.57-.08-.3a3.66,3.66,0,0,0,2.26-1.26c0-.25-1-.6-2.83-1.08L228,214a6.9,6.9,0,0,1,1.81-1.4l.08,1a2.51,2.51,0,0,0-1,.46l.89,1.27a28.49,28.49,0,0,1,5.28-4.53c1,.27,1.46.59,1.51.91l.7,0a57.19,57.19,0,0,1,15.72-8.41l.05.67c-.94,1.43-1.59,2.16-1.94,2.19a3,3,0,0,0,.43,1.29q.12,1.34-7,17.82-16.26,38.2-27.31,56.56a2.51,2.51,0,0,0,.49,1,8.78,8.78,0,0,0,3.42-1.32l.33,0,0,.67.75-.05.68-.36c0,.19.27.27.73.25l.05.73a6.13,6.13,0,0,1-1.16,3.07c-.78.83-1.59,2.59-2.45,5.26l0,.35.71-.06a43,43,0,0,0,6.71-9.7c8.6-2.54,15.15-5,19.68-7.42,4.61-.4,8.08-1.59,10.46-3.58l0-.35-1.75.51-.38,0,0-.35c3.34-.49,5.69-1.24,7-2.24,6.52-5,11.45-8.6,14.8-10.7C287.63,249.93,292.48,242.65,291.89,235.67Zm-1.78.46.24,2.72c-.32.68-.67,1-1,1.05l-.41-4.63C289.71,235.54,290.09,235.81,290.11,236.13ZM86,214.19l-.46,0-.08-.83,1.86-.16,0,.43A3.67,3.67,0,0,0,86,214.19Zm-9.08,90.87a5.73,5.73,0,0,0-2.89-.59l-.1-1.32c-.06-.52.24-.87.89-1s.94.38,1,1.24a19.19,19.19,0,0,1,2.59-2.91l1,.4C79.06,303.58,78.23,305,76.91,305.06ZM174,203.51c-.46.06-1.37-1.37-2.69-4.2l-.09-.84c.87-.08,1.76,1.32,2.7,4.21Zm-1.29-10-.38.89-13.18-5.5Q172.32,189.28,172.69,193.46ZM117,241.25l-1.86.16-.08-.83,1.86-.16Zm-1.51-28.71.46,0,.11,1.32c-.43,0-1,.67-1.7,1.91l-.08-.92C115.13,213.84,115.56,213.08,115.51,212.54Zm-3.91,9.22.16,1.75-.45,0-.17-1.75Zm-2,3.29.89-.08c-.08,1.46-.48,2.24-1.21,2.29l-.46,0A4.14,4.14,0,0,0,109.55,225.05ZM108,229.63l.51,0,0,.43-.84,1.4-.89.08,0-.43A1.17,1.17,0,0,0,108,229.63Zm-1.51,4.13-.27,2.21-.46,0-.19-2.19Zm-15.13,43c-.59,3-1.24,4.55-1.91,4.6l0-.43A4.84,4.84,0,0,1,91.38,276.76Zm-2.77,6,0,.43a.78.78,0,0,1-.8,1l0-.43C87.74,283.22,88,282.9,88.61,282.77Zm-.81,12.48,1.4-.14,0,.49a3.43,3.43,0,0,0-1.37.54l-.89.08C86.94,295.76,87.23,295.41,87.8,295.25Zm39.9-12.32q-11.82,5.82-13.89,7.9-12.78,4.44-12.67,5.52a141.93,141.93,0,0,0-15,6.58,5.39,5.39,0,0,1-2.45-.65,4,4,0,0,1,2-3.77,8,8,0,0,1,3.8.59,37.18,37.18,0,0,1,7.33-2.4l-.08-.91L94,296c.35-.49,3-1.75,8.11-3.8l1.4-.14,0,.43c-2.4.22-3.72.92-4,2.19a.77.77,0,0,0,1,.75c1.81-1.13,2.7-1.8,2.67-2q5.13-1,28.39-14.85l.08.83C131.69,279.85,130.36,281,127.7,282.93Zm-23.78,7.82a9.2,9.2,0,0,0,5.82-2.7c.65-.05,1,.19,1,.75-1.11.11-3.24,1-6.34,2.81l-.46,0Zm38.36-29.47-11.89,9.44c-8.84,5.79-13.59,8.7-14.29,8.76q-21.1,11.59-26.23,12l-.51.05q.65-2.38,18.82-38.49,8-.69,25.2-7.47l2.81-.24c5.79-.52,10.13.62,13,3.31l.16,1.75C147.21,256.62,144.84,260.23,142.28,261.28ZM119,248.21l1.92-.16,0,.43-1.91.16Zm26.88-4.56,1.4-.13c1.29.62,2,1.16,2,1.64l0,.43C148.13,245.7,147,245.05,145.92,243.65Zm3.8-21.64q-1.86,2.22-10.19,7.57c-1.83.16-8.65,2.8-20.46,8a3.66,3.66,0,0,0-1.89-.32l-.08-.84c-.13-1.7.62-3.83,2.29-6.42.92-4.85,1.92-7.62,3-8.3l9.84-22.13c-.11-1.38,2-2.43,6.31-3.15l1.4-.14.11,1.27c4.23-.65,6.87-1,7.9-1.11,7.82-.67,11.88.92,12.21,4.72l.89-.08-.19-2.24,1-.08c2.29,1.27,3.53,2.8,3.69,4.61.11,1.24-.56,2.78-2,4.61-.59,0-1-.38-1-1.24l-1,.08-.22,2.7q-5.94,8.9-8.62,9.14C151.12,220.87,150.12,222,149.72,222Zm6,15.5a3.49,3.49,0,0,0-1.94-.76l-.11-1.32.89-.08,2,1.16A.78.78,0,0,1,155.76,237.51Zm6.25,7.41c.86.35,1.38.73,1.48,1.08l-.43.1,0,0a.88.88,0,0,0-.27.06l-.65.51Zm.59,3.72-.08-.35,1.14-.27.08.35Zm2.73,3c1.16-.18,1.72-.26,3.88-.75l.08.35-4.1.94A4.32,4.32,0,0,0,165.33,251.68Zm4,1.7a17.5,17.5,0,0,0-4.1.57l-.08-.35,3.45-1.11,1.64-.37.17.64C169.64,252.92,170.18,252.92,169.32,253.38Zm3.64-.86A.74.74,0,0,1,172,252l1.05-.24a.64.64,0,0,1,.86.54Zm9.86-10.62-.08-.35,1.7-.41.16.65Zm10.54,64.64a2.52,2.52,0,0,0,.08-1.08l.38-.08a.62.62,0,0,1,.84.49l.08.35Zm7.39-61.86-.76-.14a20.77,20.77,0,0,1-3.07,1l-.7.16a.7.7,0,0,1-.89-.49l4.93-1.13,1.62-.76.54.63A3.54,3.54,0,0,0,200.75,244.68Zm3.8-1.22-.08-.35a2,2,0,0,0,.92-.59l3.5-.81.08.35A27.79,27.79,0,0,0,204.55,243.46Zm.54-7.09a2.91,2.91,0,0,0-1,.6c-.06-.25-.54-.25-1.46,0-.16-.67,2.43-1.62,7.79-2.86l.76-.16.16.65C207.6,235.67,205.49,236.29,205.09,236.37Zm9.43-10.19c-.37,4.29-1.88,6.72-4.55,7.34l-.08-.35-2.37.91-1.06.24a2.63,2.63,0,0,1-1.45,0l-.22-1q-.12-.53,10.3-14.2l.81.13C216.2,220.52,215.74,222.81,214.52,226.18Zm16.69-14.28-.32,0-.06-.67,1.41-.14,0,.35A4.65,4.65,0,0,0,231.21,211.9Zm-6.87,69a4.35,4.35,0,0,0-2.16-.48l-.08-1c0-.35.19-.59.65-.72s.72.27.78,1a11.42,11.42,0,0,1,1.94-2.24l.73.3C225.93,279.77,225.31,280.85,224.34,280.93ZM298,203.84c-.35,0-1-1.06-2.08-3.24l0-.67c.67-.06,1.37,1,2.07,3.15Zm-1-7.71-.33.7-10-4.18C293.43,192.86,296.88,194,297.07,196.13Zm-42.3,36.31-1.4.13-.05-.67,1.4-.14Zm-1.16-21.81.38,0,.08,1c-.35,0-.78.51-1.29,1.45l-.06-.67A3.11,3.11,0,0,0,253.61,210.63Zm-2.94,7,.11,1.32-.38,0-.1-1.32Zm-1.59,2.5.7,0c-.08,1.13-.37,1.73-.88,1.78l-.38,0A3.67,3.67,0,0,0,249.08,220.14ZM248,223.6l.32,0,0,.35-.62,1.08-.7.05,0-.35C247.68,224.65,248,224.27,248,223.6Zm-1.13,3.12-.24,1.73-.33,0-.13-1.69Zm-11.51,32.7c-.46,2.27-.95,3.43-1.46,3.48l0-.3A3.83,3.83,0,0,1,235.31,259.42ZM233.18,264l0,.29a.63.63,0,0,1-.65.79l0-.35C232.51,264.35,232.72,264.11,233.18,264Zm-.59,9.49,1.07-.08,0,.35a3,3,0,0,0-1.05.4l-.7.05C231.91,273.82,232.13,273.57,232.59,273.47Zm30.27-9.36c-5.93,2.94-9.46,4.94-10.57,6q-9.71,3.39-9.62,4.23a102.55,102.55,0,0,0-11.3,5,4.26,4.26,0,0,1-1.86-.51,2.87,2.87,0,0,1,1.57-2.81,6.17,6.17,0,0,1,2.88.43,32,32,0,0,1,5.58-1.8l0-.68-2.19.19c.27-.37,2.35-1.34,6.2-2.91l1.08-.08,0,.3c-1.83.16-2.86.7-3.07,1.67a.58.58,0,0,0,.75.59c1.35-.89,2-1.4,2-1.56q3.89-.69,21.54-11.3l.06.68C265.88,261.77,264.88,262.63,262.86,264.11ZM244.8,270a7.2,7.2,0,0,0,4.47-2c.46,0,.73.16.76.59a17.26,17.26,0,0,0-4.8,2.05l-.38,0ZM274,247.64l-9,7.23q-10.07,6.58-10.92,6.65-16,8.82-19.92,9.14l-.38,0q.49-1.81,14.32-29.22,6-.53,19.11-5.72l2.18-.19q6.6-.56,9.84,2.57l.11,1.32Q276.87,246.4,274,247.64Zm-17.64-9.92,1.41-.13,0,.35-1.4.13Zm20.41-3.48,1.08-.08c1,.49,1.51.92,1.54,1.27l0,.3A3,3,0,0,1,276.74,234.24Zm2.83-16.41c-.94,1.13-3.5,3.07-7.68,5.77q-2.1.19-15.53,6a3.34,3.34,0,0,0-1.43-.19l-.05-.68q-.16-1.94,1.7-4.87c.7-3.73,1.48-5.8,2.29-6.29l7.52-16.82c-.08-1,1.51-1.8,4.74-2.42l1.08-.08.08,1q4.77-.76,6-.89c5.93-.51,9,.67,9.27,3.59l.7-.06-.13-1.62.7-.05q2.58,1.41,2.75,3.42a5.64,5.64,0,0,1-1.43,3.54c-.46,0-.73-.27-.78-1l-.7.06-.22,2q-4.49,6.84-6.55,7C280.68,217,279.92,217.8,279.57,217.83ZM282.73,229l-.08-1,.7-.06,1.51.92a.64.64,0,0,1-.65.73A2.71,2.71,0,0,0,282.73,229ZM157.24,294.52l-.7.16-.59.51a.6.6,0,0,0,.83.49c.46-.11.65-.38.54-.81Zm-2.67-5.31.08.35c.46-.11.65-.38.54-.81l-.08-.35A.64.64,0,0,0,154.57,289.21Zm19.09-35.85.51-.33a.72.72,0,0,1-.27-.05A.31.31,0,0,0,173.66,253.36Zm-.11-9.3.81-.19-.16-.7-.81.18Zm190.51,27.22-1.84-.21-.32.7,0,.35,10.91-.92,0-.67Zm10-.83.05.67h.11l-.05-.67Zm45.8-6,.05.68,1.19.21-.05-.67Zm-1.67.14c-8.2,1.83-9.22,1.51-11,1.64l.06.68.75-.06.41,0-.11-.08.89-.35c8.11-.89,9.06-.56,9-1.48ZM369,252.68l-.73-.24a12.09,12.09,0,0,0-.86,2.8l0,.3C368,255.51,368.48,254.54,369,252.68Zm-9.86-5.31,0-.35-.38,0-.67.43.38.65C358.91,248.07,359.15,247.83,359.1,247.37Zm21.43,22.16-.06-.67-.21,0,.05.68Zm44.48-10,.51-.05c.29,0,.43-.27.4-.7l-.29-.65a8.69,8.69,0,0,0-4.24,1.08l0-.35-2.24.21c-.05-.67-.24-1-.54-1l-1.16.1c-1.35.11-2,.06-2.67.57,0-.24-.11-.35-.24-.35l-1.29.11-.76.43c0-.24-.11-.35-.24-.35l-.46.4,0-.35-1.8-.13-.43,0,.05.67.92.24.86-.05a1.54,1.54,0,0,0,1,.21l.75-.37,0,.29a54.62,54.62,0,0,1-7.12,1.35,1.23,1.23,0,0,0-.73-.3l0,.06a.58.58,0,0,1-.54-.6l1.51-.18c.11,0,.19.1,1,.27,1.22-.6,1.27-.84,1.92-.89l-.06-.68c-4.15.81-2.48.27-7.68.73l-.24,0-.06-.68c6.69-.81,4.45-.35,6.74-1,0,.24.11.35.25.35a1.53,1.53,0,0,1,.91-.46l.46,0c2.35-.19,3.13.27,7.77-1l0,.29.76-.37.7-.06c-.06-.67,1-.78,1.32-.81l0-.73c-8.15,1.65-10.28,1.19-12.54,1.84l0-.3a9.37,9.37,0,0,1-2.75.24,1.49,1.49,0,0,0-.67.44c0-.25-.11-.36-.27-.36a.4.4,0,0,0-.13,0l-6.91,1.13c0-.18-.1-.29-.27-.27-3.58.76-2.61.89-7.41,1.33a2.19,2.19,0,0,0-.89.37c0-.19-.13-.29-.38-.27l-2.93.25-2,.48a.3.3,0,0,0-.38-.27,15.06,15.06,0,0,1-2.86.54h-.05c-.49.05.24-.13-.14-.3l-.59.35c-.86.09-.4-.05-3.37,0-5.2.64-4.63.73-5.2.75l-1.94-.13a.27.27,0,0,1-.3.32c-2.21-.3-3.34-.65-3.37-1.05.3-2.1.81-3.18,1.54-3.24l.38,0-.33.7.38,0c.7-.38,1-.73,1-1.05l-.06-.73-.7.06-.05-.68a2.46,2.46,0,0,1,.21-1.35l1.59-2.56.06.68.75-.06-.05-.67-.43-.62a2.64,2.64,0,0,1,1.35-.78l0-.35-1,.08-.08-1c2.05-4.25,3-6.74,3-7.44l.73.3c.46,0,.67-.3.64-.78l-.7.05,0-.29a2.47,2.47,0,0,1,.27-1.43,4.51,4.51,0,0,0,1.5-3.53c.22,0,.33.08.36.32.94-.54,1.67-2,2.21-4.34q2.51-4.53,7.14-18.09c5.93-16,5.69-17.66,6.52-21.43l-.7.05a2.36,2.36,0,0,1-.27,1.38,2.68,2.68,0,0,0-1.13-.27l0-.3a8.23,8.23,0,0,1,1.76-5l.32,0,.59,2.31.7,0a24.71,24.71,0,0,1,.54-2.78c0-.35-.29-.56-.83-.59l-.68.43c-.05-.48,0-1.75.06-3.77l-.35,0a2.58,2.58,0,0,1-.92-1.48l-3.86.38a3.46,3.46,0,0,0-.43-1.19c0-.35.84-.7,2.62-1l.78.3.73-.43c0,.24.16.35.43.32l.73-.43c0,.24.16.35.43.32l.35,0-.05-.79a41.22,41.22,0,0,1-4.24,0l-.73.48,0-.43q-27.14,2.22-30.81,2.56c-.33,0-1.59,0-3.83,0q0,.44-.78.51l-.79-.35-2.64.67a16.87,16.87,0,0,1-3.12-.13,2.78,2.78,0,0,1-1.49.57c-.32,0,3.86-.22,7.74-.49a3.54,3.54,0,0,1-1.89.59,2.47,2.47,0,0,1-1.53-.27,44.55,44.55,0,0,1-5.72,1.35l-.78-.3-12.62,2a3,3,0,0,0-1.69-.27,20.24,20.24,0,0,0-3.37.72l-6.1,2.54.46.75a3.29,3.29,0,0,0,1.24-.48L321,189l-.27,2a5.42,5.42,0,0,0-3.48,3.88c-3,1.32-4.47,2.26-4.47,2.83l0,.35.46,0,.81-.43.94,1.13.14,1.57q.08.72-15.07,31.78Q287,262.07,286.31,265c-3,.84-4.72,2-5.23,3.67.06.51.95.86,2.67,1l.08.78-.78,1.29.13,1.57q.12,1.22,6.56,1.86c0-.27.1-.43.4-.46a23.64,23.64,0,0,1-.81,5.66l.46,0c1.78-2.42,2.61-4.09,2.53-5l.38,0c.43,0,.89.46,1.43,1.51-.54.22-2.43,4.5-5.66,12.89l.46.75.45,0c4-10,6.45-15.58,7.47-16.63q7.8-.69,27-2.75l.8-.48c0,.27.19.4.49.38l.84-.09.8-.48c0,.27.19.4.49.38l9.68-.84c2.56-.22,3.77-1,3.66-2.32,0-.35,1.49-.75,4.53-1.18a3.56,3.56,0,0,1,1.32.24c0-.24,1.51-.49,4.59-.76.08-1.61.59-2.48,1.51-2.56l-.09-.78a13.21,13.21,0,0,0-3,.68,18.27,18.27,0,0,1-3.86-.46,3.48,3.48,0,0,1-1.24.48l-6.74.22-.8.43c0-.24-.19-.35-.49-.32l-.38,0-.86.43c0-.24-.73-.43-2.13-.62l-.86.52-1.67.13,0-.43c8.68-.94,13-2.13,12.86-3.53a.74.74,0,0,1,.91.78l2.54-.65-.08-.78-20.79.57c0,.27-.1.43-.4.46l-2.53-.22a3,3,0,0,0-1.62.57l-.94-.35a28,28,0,0,0-5.85.94,36.22,36.22,0,0,0-5.94.08l-4.66.4-2.15-.24q-.17-2.06,8-20.27c1.6-4.1,3.05-6.66,4.45-7.63a3.09,3.09,0,0,1,1.32.32l3.32-1.13,1.7.27a38.82,38.82,0,0,0,10-2.45,4.62,4.62,0,0,1,2.16.19l2.53-.6,7.55-.64a50,50,0,0,0,10.46-2.13l-.08-.78c-1.4.13-2.13-.11-2.18-.68-.09-1-1.11-1.48-3.08-1.32l-.08-.78,2.08-.59,5.44-.46-.08-.78c-.21,0-1.32,0-3.37-.08l-.08-.84,2.1-.19c.57-.05.81-.32.76-.86-2.83.08-4.26-.06-4.29-.43q-29.6,1.46-29.68.54a3.22,3.22,0,0,0-1.24.54L319,220q7.85-16.66,9.19-16.8a5,5,0,0,1-.64,2.08l0,.35.84-.08c2.07-5,3.83-7.52,5.28-7.63,6.2-.54-.86-.94,12.4-3a2.59,2.59,0,0,0,1.19.32q7.8-1.57,21.75-3.29l-.05-.78-5,.46-.06-.78a2.63,2.63,0,0,0,1.49-.57l0,.43a2.86,2.86,0,0,0,1.14-.53,3.45,3.45,0,0,1,2,.24,28.87,28.87,0,0,1,4.16-.84l3.1-.29c.75-.49,1.1-.92,1.07-1.33l0-.35a9.46,9.46,0,0,1-2.73-.16.79.79,0,0,1,.71-.86l5.76-.54,2.65-.67c0,.29.16.4.37.4a2.92,2.92,0,0,0,1.14-.54c.13,0,.29,0,.43.06a20.76,20.76,0,0,0-1.16,3.15l-.76.05a3.25,3.25,0,0,0-.43-1.37l-.38,0c-7,19.51-10.13,28.6-16.6,43.59-1.19,3.82-2.18,5.95-3.05,6.41a.6.6,0,0,0,.76.59,9.42,9.42,0,0,1-1.32,5.58c-3,8.63-5,13.35-6,14.21l.68,4.07a.63.63,0,0,1-.65.73l-.7.05c-.11-1.13-.51-1.67-1.24-1.59l-.38,0a16.21,16.21,0,0,0-2.07,5l.7-.06a2.33,2.33,0,0,0,1.29-2.18l1.4-.14.81.3a4.41,4.41,0,0,0-.89,2.45l.38.65-.92,2.16,0,.35a4.41,4.41,0,0,1,2.64.75,4.68,4.68,0,0,0,2.13-.86c.81-.08,3.83-.11,9-.11l2.62-.89a57,57,0,0,0,6.44-.19l1.13-.1.6-.41,0,.35a17.75,17.75,0,0,1,5.34.22l0,.35-1.59.13.05.68a2.3,2.3,0,0,0,1.27-.49c.4,0,.65.19.67.68a9.3,9.3,0,0,0-2.18.48l-.7-.24c-1.11.3-.86.38-1.62.43l-1.1-.22a.27.27,0,0,1-.27.33.58.58,0,0,0,.67.62l1.13-.11,5.91-.51,2.23-.49c0,.19.11.3.3.27l1.08-.4,2-.16c1.56-.14,1.54-.25,4.93-.79,0-.21.06-.29.22-.32l0,.3c5.52-.95,5.87-1,6.76-1.3l.08.17c1.38-.33.6-.25,1-.52,0,.25.11.35.25.35l1-.08-.06-.72-2,0,0-.06-.22.06h-.27v0a10.23,10.23,0,0,1-2.21.16l-4.93.27,0-.35,2.75-.37,1-.09.56-.4,0,.35c3.88-.32,5.26.65,23.21-3.18,1-.08.89-.89,1.51-2.56a1.58,1.58,0,0,1-.94-.22c-1.48.57-2.27.3-5.12.76-.25,0-.44-.19-.52-.62l0-.3,2.75.08a6.82,6.82,0,0,0,3-1c0,.24-.57.38-.24.35Zm-132.74,2.13-1.27.11c-.05-.51.62-2.45,2-5.77l.84-.08C293.89,256.67,293.37,258.59,292.27,261.63Zm1.54-6.14,0-.35c0-.44.24-.73.83-.87l0,.35C294.67,255.14,294.4,255.43,293.81,255.49Zm16.84,13,0,.35-2.1.19,0-.36Zm-2.53-.22c0,.43-.62.92-2,1.4l-2.59-.19-.84.08-.08-.78Zm17-78.42-1.27.11,0-.43c0-.43.22-.73.76-.86l.46,0,.86.35A.75.75,0,0,1,325.16,189.87Zm19.27-3.77.41,0,.05.78-1.16.11A.79.79,0,0,1,344.43,186.1Zm-4.85,1.7-1.92-.22,0-.35a21,21,0,0,0,4.88-.92c0,.3.29.41.78.35l.05.79-.75.08a2.64,2.64,0,0,1-1.54-.27A3.44,3.44,0,0,1,339.58,187.8Zm2.4,7,0-.35,3.1-.3,0,.35Zm3.31-2.7,0-.43,1.51-.13,0,.43Zm.35-5.28-.4,0,.35-.84,3.45-.32,0,.43A20.6,20.6,0,0,0,345.64,186.8Zm1.76,7.44-.06-.78,1.51-.14c.51,0,.78.19.81.73Zm9.13-12.46-1.94.54-.35,0a20.36,20.36,0,0,1-3.5-.08C353.25,182.11,355.65,181.92,356.53,181.78Zm-2.07,8.63,0,.35-2.67.24,0-.35Zm4.37,2.08c0-.33-.54-.54-1.59-.65l-2.67.75-2.05.09c-.46-.33-.7-.54-.73-.71l2.37.14,5.34-.86,2.72.1,0,.44A14.57,14.57,0,0,0,358.83,192.49Zm27.47-7.09.62,0a10.36,10.36,0,0,1,3.2-2.15q-1.46,6.39-4.55,9.46l-1.51-.92A49.71,49.71,0,0,0,386.3,185.4Zm-4.64,7.95.38,0c-.52,1-1,1.48-1.35,1.51l-.08-1A2.28,2.28,0,0,0,381.66,193.35Zm-3,7.14c.72-2.91,1.43-4.55,2.07-5l0,.35c-.38,2.69-1,4.12-1.75,4.23l.13,1.7a3.82,3.82,0,0,0-.92,2.15l-.37,0-.22-2.34C378.07,201.57,378.42,201.19,378.67,200.49Zm-1.16,3.88a10.42,10.42,0,0,1-.78,2.81l-.38,0-.08-1c.51-1.19.94-1.78,1.24-1.81Zm-21.76,63.14,0-.3.7,0,.08,1C356.13,268.21,355.86,268,355.75,267.51Zm31.08.81c0-.25-.13-.35-.37-.33l-1.76.17,0-.36h.16l4.15-.35,0,.35A3.71,3.71,0,0,0,386.83,268.32Zm-2.07-.87c.16.09.08.17,0,.22S384.57,267.56,384.76,267.45Zm.21-4.85-2.31.19,0-.35,2.1-.19,1.83-.46c0,.22.14.3.38.27,2.19-.37,2-.48,3-.56.35,0,.57.19.59.62Zm8.12-.7a9.5,9.5,0,0,0-2.29-.16l0-.3,2.08-.19,0,.3C392.66,261.58,393.44,261.63,393.09,261.9Zm.16-.38,0-.29,1.14-.11,0,.3Zm2.51-.21,0-.3a1.87,1.87,0,0,0,.81-.43.81.81,0,0,1,.92.76Zm3.21-.41,0-.35,1.37-.1,0,.35Zm1.91-.16c0-.4.13-.64.48-.7l.46.59a.26.26,0,0,1,.22-.32l.35.65Zm26.53-3.12,0,0v0Zm.48-.36c.22-.13.32-.26-.19-.35-.24.27.27.35-.27.38l0,.24c.05,0,.19-.13.3-.21l-.3.24v0l-.57.73,1.14-.41h.13l-.05-.67Zm2,1.54-.22,0,.06.67,1.59-.13C431.26,258.94,430.21,258.8,429.86,258.8Z" transform="translate(-67.5 -178.93)"/></svg>