<svg id="Layer_1" data-name="Layer 1" xmlns="http://www.w3.org/2000/svg" viewBox="0 0 255.05 360"><defs><style>.cls-1{fill:#1f72b5;}.cls-2{fill:#51a3dc;}.cls-3{fill:#ebebeb;}.cls-4{fill:#cecece;}</style></defs><polygon class="cls-1" points="23.21 331.08 0 70.75 255.05 70.75 231.81 331.05 127.37 360 23.21 331.08"/><polygon class="cls-2" points="127.52 337.87 211.92 314.47 231.78 92.03 127.52 92.03 127.52 337.87"/><polygon class="cls-3" points="44.65 152.13 41.52 122 213.52 122 211.52 156.88 138.77 189 208.52 189 201.02 288 130.72 306.88 57.77 289.19 53.27 239 85.52 239 87.27 265.5 129.52 273.38 168.52 261.44 170.27 219 50.52 219 48.27 187.5 127.52 152.75 44.65 152.13"/><polygon class="cls-4" points="48.27 187.5 50.52 219 127.52 219 127.52 152.75 48.27 187.5"/><polygon class="cls-4" points="87.27 265.5 85.52 239 53.27 239 57.77 289.19 127.52 306.1 127.52 273 87.27 265.5"/><polygon class="cls-4" points="41.52 122 44.65 152.13 127.52 152.75 127.52 122 41.52 122"/><polygon points="151.52 12 151.52 0 103.52 0 103.52 28 136.52 28 136.52 37 102.52 37 102.52 48 150.52 48 150.52 19 116.52 19 116.52 12 151.52 12"/><polygon points="64.52 28.27 64.52 37 98.52 37 98.52 48 50.52 48 50.52 19.27 50.52 0 97.52 0 97.52 12 64.52 12 64.52 28.27"/><polygon points="204.52 12 204.52 0 156.52 0 156.52 28 189.52 28 189.52 37 155.52 37 155.52 48 203.52 48 203.52 19 169.52 19 169.52 12 204.52 12"/></svg>