<svg id="图层_1" data-name="图层 1" xmlns="http://www.w3.org/2000/svg" viewBox="0 0 125.0967 115.1982"><defs><style>.cls-1{fill:#7d4594;}.cls-2{fill:#fff;}</style></defs><rect class="cls-1" width="125.0967" height="115.1982"/><path class="cls-2" d="M32.1323,94.3584v.7617c0,.18939-.0512.2715-.187.2715a.57806.57806,0,0,1-.2558-.1016l-.0835-.0508a4.59508,4.59508,0,0,0-2.4048-.6269c-2.7139,0-4.3623,1.78019-4.3623,4.7314,0,2.7139,1.5473,4.3047,4.1567,4.3047a5.61389,5.61389,0,0,0,2.7647-.6934.465.465,0,0,1,.2041-.0859c.1167,0,.1679.0859.1679.3242v.6973c0,.5722-1.4399,1.0322-3.2392,1.0322-3.6299,0-5.8326-2.0869-5.8326-5.5791,0-3.6465,2.3238-6.0039,5.9029-6.0039,1.7622,0,3.1689.457,3.1689,1.0186" transform="translate(-13.9512 -13.6982)"/><path class="cls-2" d="M36.7046,100.2421l-3.834-6.3779a.32567.32567,0,0,1-.0508-.1846c0-.1513.0508-.205.2051-.205H34.499a.26286.26286,0,0,1,.2031.1191l2.9336,5.2051,3.0015-5.2051a.20914.20914,0,0,1,.1875-.1191h1.0166c.1694,0,.2705.08789.2705.2207a.30662.30662,0,0,1-.0659.1689l-3.647,6.15629v4.54491a.22333.22333,0,0,1-.2202.2197H36.9248a.22044.22044,0,0,1-.2202-.2197Z" transform="translate(-13.9512 -13.6982)"/><path class="cls-2" d="M48.1084,98.665a3.22341,3.22341,0,0,1,1.9321.9971,2.88669,2.88669,0,0,1,.6597,1.9345c0,1.9873-1.4541,3.1895-3.8311,3.1895H43.3765a.22173.22173,0,0,1-.2202-.2227V93.6962a.22261.22261,0,0,1,.2202-.22071H46.647c2.1894,0,3.3779.99911,3.3779,2.81451a2.165,2.165,0,0,1-1.9165,2.375m-3.2549,4.9844H46.563c1.563,0,2.3594-.71,2.3594-2.1035,0-1.4239-.814-2.1348-2.4605-2.1348H44.8535Zm0-5.3584h1.252c1.4414,0,2.1372-.5938,2.1372-1.8311a1.68464,1.68464,0,0,0-1.7808-1.8486H44.8535Z" transform="translate(-13.9512 -13.6982)"/><path class="cls-2" d="M53.833,94.747v3.3936h3.5078a.22309.22309,0,0,1,.2197.2207v.8291a.225.225,0,0,1-.2197.2197H53.833v4.1025h4.6963a.22487.22487,0,0,1,.2173.2247v.8271a.22513.22513,0,0,1-.2173.2227H52.3555a.22431.22431,0,0,1-.2217-.2227V93.6972a.22391.22391,0,0,1,.2217-.22071H58.188a.22631.22631,0,0,1,.2222.22071v.8291a.22624.22624,0,0,1-.2222.2207Z" transform="translate(-13.9512 -13.6982)"/><path class="cls-2" d="M62.0562,99.5644v5a.22175.22175,0,0,1-.2178.2217H60.582a.22509.22509,0,0,1-.2202-.2217V93.6972a.22558.22558,0,0,1,.2202-.22071h3.4927a2.85562,2.85562,0,0,1,2.5239,1,3.16443,3.16443,0,0,1,.6319,1.94921,2.8062,2.8062,0,0,1-2.9688,2.88579l3.9683,5.083c.0503.06831.0679.10151.0854.12111.0157.0156.0157.0488.0157.084,0,.1162-.0835.1865-.2359.1865H66.5371a.21543.21543,0,0,1-.1738-.085L62.772,99.7314c-.1065-.1338-.1543-.167-.3037-.167Zm0-1.1357h1.2041c1.5097,0,2.1894-.5967,2.1894-1.8995a1.71626,1.71626,0,0,0-1.8506-1.9169H62.0562Z" transform="translate(-13.9512 -13.6982)"/><path class="cls-2" d="M77.4487,94.3584v.7617c0,.18939-.0527.2715-.1841.2715a.54768.54768,0,0,1-.2553-.1016l-.0889-.0508a4.58285,4.58285,0,0,0-2.4048-.6269c-2.7138,0-4.3598,1.78019-4.3598,4.7314,0,2.7139,1.5468,4.3047,4.1572,4.3047a5.60172,5.60172,0,0,0,2.7617-.6934.48055.48055,0,0,1,.2046-.0859c.1167,0,.1694.0859.1694.3242v.6973c0,.5722-1.4414,1.0322-3.2392,1.0322-3.627,0-5.8316-2.0869-5.8316-5.5791,0-3.6465,2.3213-6.0039,5.9019-6.0039,1.7607,0,3.1689.457,3.1689,1.0186" transform="translate(-13.9512 -13.6982)"/><path class="cls-2" d="M78.4722,99.2402a6.22458,6.22458,0,0,1,1.2212-4.2383,4.86813,4.86813,0,0,1,4.1025-1.6621c3.4951,0,5.3564,2.0518,5.3564,5.8506,0,3.7783-1.8613,5.8847-5.2197,5.8847-2.0537,0-3.2705-.4931-4.2568-1.6787a6.11952,6.11952,0,0,1-1.2036-4.1562m1.7788-.0322a5.27,5.27,0,0,0,.7978,3.2216,3.27832,3.27832,0,0,0,2.7666,1.3731c2.2696,0,3.5596-1.6787,3.5596-4.6123,0-2.916-1.3037-4.5781-3.5596-4.5781a3.18728,3.18728,0,0,0-2.749,1.3564A5.234,5.234,0,0,0,80.251,99.208Z" transform="translate(-13.9512 -13.6982)"/><path class="cls-2" d="M92.0537,95.7138v8.8496a.22452.22452,0,0,1-.2197.2227h-.918a.22386.22386,0,0,1-.2197-.2227V93.6943a.22611.22611,0,0,1,.2197-.2207h1.6289a.40745.40745,0,0,1,.4395.3232l3.3261,9.4463,3.1866-9.2764c.1367-.40521.2197-.4931.5234-.4931h1.6484a.22306.22306,0,0,1,.2178.2207v10.8691a.22093.22093,0,0,1-.2178.2227h-1.2041a.21651.21651,0,0,1-.2246-.2227V95.6289l-2.8291,8.122c-.3017.916-.4052,1.0352-.83,1.0352h-.9502c-.3721,0-.459-.0869-.6807-.7305l-2.1709-6.291-.1992-.5762-.2022-.62691c-.1211-.30669-.1718-.47559-.3242-.84769" transform="translate(-13.9512 -13.6982)"/><path class="cls-2" d="M60.856,114.5273h1.2563a.22185.22185,0,0,1,.2188.2197v3.9678c0,.5752-1.4908,1.0342-3.4073,1.0342-3.6269,0-5.832-2.1016-5.832-5.5791,0-3.7276,2.3061-6.001,6.0698-6.001,1.7652,0,3.1695.4404,3.1695,1.01659v.72951c0,.2197-.0489.3047-.1856.3047a1.28958,1.28958,0,0,1-.4424-.1865,5.53167,5.53167,0,0,0-2.5239-.5928c-2.6431,0-4.3071,1.831-4.3071,4.7129,0,2.7304,1.5405,4.3418,4.1377,4.3418,1.1709,0,1.6284-.1534,1.6284-.5264V114.747a.22159.22159,0,0,1,.2178-.2197" transform="translate(-13.9512 -13.6982)"/><path class="cls-2" d="M65.9941,114.3916v5.00189a.22643.22643,0,0,1-.2226.22271h-1.252a.22819.22819,0,0,1-.2246-.22271V108.5244a.22433.22433,0,0,1,.2246-.2198h3.4903a2.86671,2.86671,0,0,1,2.5263.9981,3.19106,3.19106,0,0,1,.6294,1.9531,2.79977,2.79977,0,0,1-2.9687,2.8799l3.9682,5.0859a.94559.94559,0,0,0,.0855.1211c.0176.0157.0176.05079.0176.0869,0,.1163-.0884.1866-.2378.1866H70.4702a.199.199,0,0,1-.1689-.0879l-3.5987-4.96781a.30707.30707,0,0,0-.3037-.16889Zm0-1.1358h1.2032c1.5078,0,2.1855-.5918,2.1855-1.9014a1.71247,1.71247,0,0,0-1.8486-1.9121H65.9941Z" transform="translate(-13.9512 -13.6982)"/><path class="cls-2" d="M72.4639,114.0693a6.2416,6.2416,0,0,1,1.2216-4.2412,4.87132,4.87132,0,0,1,4.1021-1.6592c3.4927,0,5.3569,2.0508,5.3569,5.8477,0,3.7812-1.8642,5.8847-5.2202,5.8847-2.0537,0-3.2724-.4902-4.2583-1.6797a6.11455,6.11455,0,0,1-1.2021-4.1523m1.7802-.0332a5.27179,5.27179,0,0,0,.795,3.2217,3.285,3.285,0,0,0,2.7661,1.374c2.2719,0,3.5591-1.6797,3.5591-4.6152,0-2.91411-1.3028-4.5762-3.5591-4.5762a3.18569,3.18569,0,0,0-2.7461,1.3545A5.23045,5.23045,0,0,0,74.2441,114.0361Z" transform="translate(-13.9512 -13.6982)"/><path class="cls-2" d="M91.9688,108.3027h.915a.22518.22518,0,0,1,.2217.2207v7.7158c0,2.3242-1.5274,3.6641-4.1573,3.6641-2.7617,0-4.3222-1.3076-4.3222-3.5957v-7.7842a.22424.22424,0,0,1,.2207-.2207h1.2558a.22106.22106,0,0,1,.2178.2207v7.5469c0,1.5771.9336,2.40719,2.6963,2.40719,1.8154,0,2.7314-.79689,2.7314-2.40719v-7.5469a.22432.22432,0,0,1,.2208-.2207" transform="translate(-13.9512 -13.6982)"/><path class="cls-2" d="M96.5449,115.0878v4.30469a.22413.22413,0,0,1-.2187.22171H95.0713a.223.223,0,0,1-.2197-.22171V108.5224a.22453.22453,0,0,1,.2197-.2197h3.1709c2.2734,0,3.6445,1.2392,3.6445,3.25679a3.07908,3.07908,0,0,1-1.0342,2.66121,4.16194,4.16194,0,0,1-2.8476.8671Zm0-1.2744h1.1895c1.5605,0,2.374-.7285,2.374-2.1015a1.99112,1.99112,0,0,0-2.2578-2.1368H96.5449Z" transform="translate(-13.9512 -13.6982)"/><path class="cls-2" d="M123.0107,93.3398H111.2656l-5.4892,26.4922h2.2675s5.0791-15.8613,5.7725-18.2334c1.8086-6.1836,9.1943-8.2588,9.1943-8.2588" transform="translate(-13.9512 -13.6982)"/><path class="cls-2" d="M124.3018,119.831s-2.5118-12.4033-2.6875-15.6631c-.1602-3.0039.0752-4.5439,1.8242-6.4697,1.748-1.9238,9.8154-4.3594,9.8154-4.3594h-3.375c-.1416.0283-10.2148,2.13669-10.9736,9.2315a43.08727,43.08727,0,0,1-.9834,5.4423l4.0254,11.8184Z" transform="translate(-13.9512 -13.6982)"/><path class="cls-2" d="M125.1553,93.3398c-.1338.0371-8.2989,2.3408-10.086,8.2529-.2441.8135-1.0029,3.2266-1.8964,6.043l-2.5245,12.1963h2.2686s4.0566-9.5488,4.8838-17.2608c.7637-7.1455,9.8467-9.2314,9.8467-9.2314Z" transform="translate(-13.9512 -13.6982)"/><path class="cls-2" d="M111.8457,89.8837a2.649,2.649,0,1,1,2.6475,2.6495,2.6496,2.6496,0,0,1-2.6475-2.6495" transform="translate(-13.9512 -13.6982)"/><path class="cls-2" d="M119.3379,87.2334a2.62155,2.62155,0,0,0-1.6611.5898,3.40575,3.40575,0,0,1,0,4.1191,2.61116,2.61116,0,0,0,1.6611.5909,2.6499,2.6499,0,0,0,0-5.2998" transform="translate(-13.9512 -13.6982)"/><path class="cls-2" d="M124.0557,87.2334a2.65962,2.65962,0,0,0-1.6407.5703,3.39466,3.39466,0,0,1-.0429,4.124,2.64915,2.64915,0,1,0,1.6836-4.6943" transform="translate(-13.9512 -13.6982)"/></svg>