<svg xmlns="http://www.w3.org/2000/svg" xmlns:xlink="http://www.w3.org/1999/xlink" viewBox="0 0 718.12 515.11"><defs><style>.cls-1{fill:none;}.cls-2{isolation:isolate;}.cls-26,.cls-3{opacity:0.5;}.cls-3{fill:url(#Безымянный_градиент_71);}.cls-4{fill:#2b5dad;}.cls-5{fill:#1b45a1;}.cls-6{fill:url(#Безымянный_градиент_22);}.cls-7{fill:url(#Безымянный_градиент_22-2);}.cls-8{fill:#65ace4;}.cls-9{fill:url(#Безымянный_градиент_94);}.cls-10{fill:url(#Безымянный_градиент_94-2);}.cls-11{fill:#fff;}.cls-12{fill:url(#Безымянный_градиент_94-3);}.cls-13{fill:url(#Безымянный_градиент_94-4);}.cls-14{fill:#3b77d9;}.cls-15{fill:#1f57b5;}.cls-16{fill:#153f9c;}.cls-17{fill:#9dd2f2;}.cls-18{fill:#2a66c6;}.cls-19,.cls-27{fill:#79c3f0;}.cls-20,.cls-26{fill:#99a8c2;mix-blend-mode:multiply;}.cls-20,.cls-27{opacity:0.3;}.cls-21{fill:#316ccc;}.cls-22{clip-path:url(#clip-path);}.cls-23{mix-blend-mode:overlay;}.cls-24{fill:url(#Безымянный_градиент_8);}.cls-25{fill:url(#Безымянный_градиент_8-2);}.cls-28{fill:#3973cf;}.cls-29{fill:#fb8627;}.cls-30{fill:#3aa1e0;}.cls-31{opacity:0.8;}.cls-32{fill:#0e3a82;}.cls-33{fill:#0f2d5c;}.cls-34{fill:url(#Безымянный_градиент_37);}.cls-35{fill:url(#Безымянный_градиент_37-2);}.cls-36{fill:#f09959;}.cls-37{fill:#e38540;}.cls-38{fill:url(#Безымянный_градиент_12);}.cls-39{fill:url(#Безымянный_градиент_37-3);}.cls-40{fill:url(#Безымянный_градиент_37-4);}.cls-41{fill:url(#Безымянный_градиент_37-5);}</style><linearGradient id="Безымянный_градиент_71" x1="692.37" y1="656.12" x2="1148.98" y2="199.5" gradientUnits="userSpaceOnUse"><stop offset="0" stop-color="#4659c1"/><stop offset="1" stop-color="#3ad0de"/></linearGradient><linearGradient id="Безымянный_градиент_22" x1="727.12" y1="506.67" x2="720.72" y2="312.32" gradientUnits="userSpaceOnUse"><stop offset="0" stop-color="#2a66c6"/><stop offset="1" stop-color="#79c3f0"/></linearGradient><linearGradient id="Безымянный_градиент_22-2" x1="784.88" y1="586" x2="583.97" y2="461.82" xlink:href="#Безымянный_градиент_22"/><linearGradient id="Безымянный_градиент_94" x1="687.06" y1="302.04" x2="857.72" y2="199.48" gradientUnits="userSpaceOnUse"><stop offset="0" stop-color="#6bbeff"/><stop offset="1" stop-color="#0c3aa1"/></linearGradient><linearGradient id="Безымянный_градиент_94-2" x1="1228.5" y1="436.89" x2="1078.67" y2="605.15" xlink:href="#Безымянный_градиент_94"/><linearGradient id="Безымянный_градиент_94-3" x1="1242.99" y1="155.7" x2="1234.97" y2="307.94" gradientTransform="translate(-86.21 350.29) rotate(-8.49)" xlink:href="#Безымянный_градиент_94"/><linearGradient id="Безымянный_градиент_94-4" x1="1242.87" y1="155.69" x2="1234.86" y2="307.94" gradientTransform="translate(-86.21 350.29) rotate(-8.49)" xlink:href="#Безымянный_градиент_94"/><clipPath id="clip-path" transform="translate(-588.34 -126)"><path class="cls-1" d="M946.41,276.52c20.59,0,47.65-7.75,56-10.3a1.93,1.93,0,0,1,2.57,1.7V325.2c0,44.26-57.69,80.14-57.69,80.14s-57.68-35.88-57.68-80.14V270.57a1.93,1.93,0,0,1,2.45-1.73C900,270.75,925.82,276.52,946.41,276.52Z"/></clipPath><linearGradient id="Безымянный_градиент_8" x1="876.56" y1="238.91" x2="744.44" y2="449.88" gradientTransform="matrix(-1, 0, 0, 1, 1712.17, 0)" gradientUnits="userSpaceOnUse"><stop offset="0" stop-color="#fff"/><stop offset="1"/></linearGradient><linearGradient id="Безымянный_градиент_8-2" x1="852.74" y1="223.99" x2="720.62" y2="434.96" xlink:href="#Безымянный_градиент_8"/><linearGradient id="Безымянный_градиент_37" x1="746.59" y1="480.85" x2="692.98" y2="577.53" gradientUnits="userSpaceOnUse"><stop offset="0" stop-color="#ffc34e"/><stop offset="1" stop-color="#fb8627"/></linearGradient><linearGradient id="Безымянный_градиент_37-2" x1="755.36" y1="484.69" x2="696.52" y2="590.82" xlink:href="#Безымянный_градиент_37"/><linearGradient id="Безымянный_градиент_12" x1="752.89" y1="513.69" x2="698.97" y2="580.17" gradientUnits="userSpaceOnUse"><stop offset="0" stop-color="#8fd4ff"/><stop offset="1" stop-color="#1355bf"/></linearGradient><linearGradient id="Безымянный_градиент_37-3" x1="1086.33" y1="341.72" x2="1195.46" y2="468.84" xlink:href="#Безымянный_градиент_37"/><linearGradient id="Безымянный_градиент_37-4" x1="1124.85" y1="332.09" x2="1137.54" y2="346.88" xlink:href="#Безымянный_градиент_37"/><linearGradient id="Безымянный_градиент_37-5" x1="1062.4" y1="411.5" x2="1178.55" y2="348.89" xlink:href="#Безымянный_градиент_37"/></defs><g class="cls-2"><g id="Layer_1" data-name="Layer 1"><path class="cls-3" d="M1230.89,584.76c64.34-61.42,79.71-186.81,20.12-274-49.67-72.67-141.16-147.42-256.46-169.21s-216.29-21.77-260,7c-35.75,23.56-19.13,56.37-7.92,84.25,15,37.22,17.17,66.77-44.4,120.83C612,415.37,593,438.55,589.44,498.23c-2.87,48.53,37.66,113.83,90.83,123.18,74,13,101.51-21.38,173.94-44.57,58.1-18.6,98.39-9.9,151.07,25.75S1136.47,674.9,1230.89,584.76Z" transform="translate(-588.34 -126)"/><path class="cls-4" d="M645.53,479.21s-83.28-105.11-48.17-100.1,63.93,53.26,63.93,53.26S628,303.21,638.75,297.22s8.32-17.61-2.71-47.64,30.78-10.54,36,10.51,21.54,76.59,40.47,90.72S741,375.12,741,375.12L859.59,270.75s36.89-40.93,58.6-47.46-15.75,37.3-12.71,40.52,73.45-88,93.09-70-41.75,68.72-41.75,68.72l161.87,8.2s71.71-.91,81.7-18,26.06-17.06,35.62-17.06,38.17,8.06,15.34,21.19-23.9,15.5-19.63,33.5-17.84,52.06-43.21,63.9-59.6,54.23-59.6,54.23l1.23,40.53s118.66-81.92,133.58-63.84-63.33,70-63.33,70,.71,24.93-5.84,43-34.06,18.84-50.8,27.56,72.94-3.83,83.65-29.35,87.49-50.54,76.82-22.38-20.08,43.34-20.08,43.34,28.51,3.31,21.1,21.32-75.9,29.41-99.77,29.77-439.65-2.75-439.65-2.75Z" transform="translate(-588.34 -126)"/><polygon class="cls-5" points="204.49 375.58 212.9 433.28 534.76 441.61 542.71 373.94 204.49 375.58"/><path class="cls-6" d="M816.71,563.46s-15.13-153.72-97.13-200.78-86.2-53.07-86.2-53.07S628.73,418.73,683.6,485.8s113.16,80.57,113.16,80.57Z" transform="translate(-588.34 -126)"/><path class="cls-7" d="M785,568.3s-22.75-84-90.57-98.94-106.12,4.33-106.12,4.33,35.9,101.14,88.54,107C736.19,587.32,785,568.3,785,568.3Z" transform="translate(-588.34 -126)"/><path class="cls-8" d="M789.21,568.9a1.2,1.2,0,0,1-.83-.33c-.22-.2-22.11-20.71-55.75-41.3-31-19-78.63-41.9-129.42-43.4a1.21,1.21,0,1,1,.07-2.42c22.68.67,46.63,5.57,71.16,14.59a338,338,0,0,1,59.5,29.19C767.79,546,789.82,566.6,790,566.81a1.2,1.2,0,0,1,.05,1.71A1.22,1.22,0,0,1,789.21,568.9Z" transform="translate(-588.34 -126)"/><path class="cls-8" d="M797.37,560.49a1.21,1.21,0,0,1-1.14-.8,916.11,916.11,0,0,0-43.44-98.44c-15.51-30.3-38.61-51.67-60.95-72.33-17.24-15.94-33.53-31-44.18-48.63a1.21,1.21,0,0,1,2.08-1.25c10.46,17.33,26.63,32.28,43.75,48.1C716,408,739.25,429.46,755,460.15a920.93,920.93,0,0,1,43.56,98.72,1.22,1.22,0,0,1-.74,1.55A1.12,1.12,0,0,1,797.37,560.49Z" transform="translate(-588.34 -126)"/><path class="cls-8" d="M628.33,524.08a1.21,1.21,0,0,1-.61-2.26,128.48,128.48,0,0,1,46.63-16.33c12.32-1.74,20.28-1,20.61-.95a1.2,1.2,0,0,1,1.08,1.32,1.21,1.21,0,0,1-1.32,1.09,93.59,93.59,0,0,0-20.11,1,125.92,125.92,0,0,0-45.66,16A1.29,1.29,0,0,1,628.33,524.08Z" transform="translate(-588.34 -126)"/><path class="cls-8" d="M660.55,556.36a1.2,1.2,0,0,1-.86-.36,1.22,1.22,0,0,1,0-1.72c.27-.26,6.7-6.48,18.67-13.44a137.32,137.32,0,0,1,52-17.46,1.21,1.21,0,0,1,.3,2.4,135,135,0,0,0-51.08,17.15A102.2,102.2,0,0,0,661.4,556,1.19,1.19,0,0,1,660.55,556.36Z" transform="translate(-588.34 -126)"/><path class="cls-8" d="M703.88,415.47c-1.74,0-3.59,0-5.56-.12a128.47,128.47,0,0,1-47.55-11.44,1.21,1.21,0,1,1,1-2.2,126.12,126.12,0,0,0,46.64,11.22,97.74,97.74,0,0,0,20.17-.93,1.21,1.21,0,1,1,.44,2.38A88.88,88.88,0,0,1,703.88,415.47Z" transform="translate(-588.34 -126)"/><path class="cls-8" d="M723.1,458.51c-11.31,0-27-1.33-46.88-6.15a1.21,1.21,0,0,1,.57-2.36c25.33,6.15,43.8,6.55,54.84,5.81,12-.81,18-3.1,18.06-3.12a1.21,1.21,0,0,1,.88,2.26c-.25.1-6.35,2.42-18.61,3.26C729.4,458.39,726.44,458.51,723.1,458.51Z" transform="translate(-588.34 -126)"/><path class="cls-5" d="M1226.7,574.66c-6.92-2.74-15.11-5.7-23.7-8.89-41-15.2-164.64-32.18-263.25-25.52-27.17,1.83-104.71,11.46-142.38,11.91-41.51.5-20.5,18.88-122.28,22.75s-55.15,14.16-13.5,24.25c27.44,6.66,105.88,4.54,185.72,2.32-2.38.31-2.1.32,1.41,0,12.67-.35,25.36-.7,37.89-1,46.61.55,114.29,5,164.37,5.45,66.62.55,197.54,4,209.07-11.36C1265.88,586.73,1250.06,579.73,1226.7,574.66Z" transform="translate(-588.34 -126)"/><path class="cls-9" d="M803.19,283.35a72,72,0,0,0,.45-8.09c0-1.44,0-2.87-.13-4.29l-13.36-4.33a58.78,58.78,0,0,0-4.73-16l8.86-10.9a71.78,71.78,0,0,0-7-10.2l-13.36,4.36a59.62,59.62,0,0,0-13.23-10.17l.76-14a71.49,71.49,0,0,0-11.67-4.14l-8.25,11.39a59.73,59.73,0,0,0-9.89-.83,60.84,60.84,0,0,0-6.79.39l-7.64-11.81a72.52,72.52,0,0,0-11.87,3.51l0,14.06a59.19,59.19,0,0,0-13.75,9.46l-13.11-5.06a72,72,0,0,0-7.55,9.82l8.27,11.36a58.9,58.9,0,0,0-5.58,15.73l-13.57,3.61a72.18,72.18,0,0,0-.45,8.09c0,1.44,0,2.88.13,4.3l13.36,4.32a58.78,58.78,0,0,0,4.73,16L669,310.79A72.45,72.45,0,0,0,676,321l13.36-4.36a59.58,59.58,0,0,0,13.23,10.16l-.76,14A71.49,71.49,0,0,0,713.48,345l8.25-11.39a59.73,59.73,0,0,0,9.89.83,60.84,60.84,0,0,0,6.79-.39l7.64,11.81a70.6,70.6,0,0,0,11.87-3.51V328.27a59,59,0,0,0,13.74-9.46l13.12,5.06a73,73,0,0,0,7.55-9.82L784,302.69A58.77,58.77,0,0,0,789.62,287Zm-71.57,20.16a28.25,28.25,0,1,1,28.25-28.25A28.25,28.25,0,0,1,731.62,303.51Z" transform="translate(-588.34 -126)"/><path class="cls-10" d="M1252,542.13a91,91,0,0,0,5-8.64q1.18-2.38,2.22-4.8l-12.32-12.11a72,72,0,0,0,3.61-20.21l15.75-7.11a88.74,88.74,0,0,0-2.11-15.08l-17.09-2.56a73.35,73.35,0,0,0-9-18.47l8.56-15a88.75,88.75,0,0,0-10.55-11l-15.35,8a73.32,73.32,0,0,0-18.1-9.66l-1.9-17.19a87.51,87.51,0,0,0-15-2.68l-7.72,15.47a72.74,72.74,0,0,0-20.32,2.84l-11.64-12.78a87.83,87.83,0,0,0-13.7,6.64l2.84,17a72.2,72.2,0,0,0-14.79,14.24l-16.91-3.5a88,88,0,0,0-5,8.64c-.8,1.59-1.53,3.19-2.22,4.8l12.31,12.11a72.09,72.09,0,0,0-3.61,20.21l-15.74,7.11a87.6,87.6,0,0,0,2.1,15.08l17.1,2.56a72.68,72.68,0,0,0,9,18.47l-8.57,15a87.42,87.42,0,0,0,10.56,11l15.34-8a73.32,73.32,0,0,0,18.1,9.66l1.91,17.19a87.4,87.4,0,0,0,15,2.68l7.72-15.47a72.87,72.87,0,0,0,20.33-2.84l11.63,12.78a88.37,88.37,0,0,0,13.71-6.64l-2.85-17a72.2,72.2,0,0,0,14.79-14.24Zm-89.81-17.22a34.74,34.74,0,1,1,46.62-15.52A34.73,34.73,0,0,1,1162.23,524.91Z" transform="translate(-588.34 -126)"/><path class="cls-11" d="M1203,550.75a1.43,1.43,0,0,1-.57-2.74A58.65,58.65,0,0,0,1237,502.13a1.43,1.43,0,1,1,2.83.38,61.46,61.46,0,0,1-36.21,48.12A1.42,1.42,0,0,1,1203,550.75Z" transform="translate(-588.34 -126)"/><path class="cls-11" d="M1235.2,475.18a1.43,1.43,0,0,1-1.34-.94,58.32,58.32,0,0,0-12.46-20.13,1.43,1.43,0,1,1,2.07-2,61,61,0,0,1,13.07,21.11,1.43,1.43,0,0,1-.85,1.83A1.37,1.37,0,0,1,1235.2,475.18Z" transform="translate(-588.34 -126)"/><path class="cls-11" d="M1205.74,442.2a1.36,1.36,0,0,1-.64-.15,58.29,58.29,0,0,0-13.65-4.84,1.43,1.43,0,1,1,.62-2.79,61,61,0,0,1,14.31,5.08,1.42,1.42,0,0,1,.64,1.91A1.44,1.44,0,0,1,1205.74,442.2Z" transform="translate(-588.34 -126)"/><path class="cls-12" d="M1154.17,428.77a54.4,54.4,0,0,0,6.06,1.59c1.09.23,2.19.41,3.28.57l5.34-9.47a45.53,45.53,0,0,0,12.87-1.12l6.91,8.4a55.72,55.72,0,0,0,8.82-3.74l-1.25-10.81a46.06,46.06,0,0,0,9.76-8.47l10.53,2.74a55.51,55.51,0,0,0,4.94-8.21l-7.37-8a45.86,45.86,0,0,0,2.16-7.38,47,47,0,0,0,.75-5.21l10.14-4a56,56,0,0,0-.83-9.55L1215.61,364a45.92,45.92,0,0,0-5-11.88l5.86-9.17a56.12,56.12,0,0,0-6.28-7.24l-9.9,4.52a45.59,45.59,0,0,0-11.07-6.66l-.65-10.85a56.67,56.67,0,0,0-6.06-1.59c-1.09-.22-2.19-.41-3.28-.56l-5.34,9.46a45.53,45.53,0,0,0-12.87,1.12l-6.91-8.4a55.76,55.76,0,0,0-8.82,3.75l1.25,10.81a46,46,0,0,0-9.76,8.46L1126.2,343a56,56,0,0,0-4.94,8.21l7.37,8a45.75,45.75,0,0,0-2.16,7.37,47,47,0,0,0-.75,5.21l-10.14,4a55.93,55.93,0,0,0,.83,9.54l10.67,2.16a46.13,46.13,0,0,0,5.05,11.89l-5.86,9.16a56.12,56.12,0,0,0,6.28,7.24l9.9-4.52a45.28,45.28,0,0,0,11.07,6.66Zm-4.25-57.4A21.86,21.86,0,1,1,1167,397.16,21.87,21.87,0,0,1,1149.92,371.37Z" transform="translate(-588.34 -126)"/><path class="cls-13" d="M1184,371.64a13.14,13.14,0,1,1-14.94-11.06A13.14,13.14,0,0,1,1184,371.64Z" transform="translate(-588.34 -126)"/><path class="cls-14" d="M1016.59,559.76V499.94H878v59.82H833a15.15,15.15,0,0,0-15.15,15.15v3.68a4.92,4.92,0,0,0,4.92,4.92h249.14a4.93,4.93,0,0,0,4.93-4.92v-3.68a15.15,15.15,0,0,0-15.15-15.15Z" transform="translate(-588.34 -126)"/><polygon class="cls-15" points="289.67 414.95 428.25 404.26 428.25 379.06 289.67 380.53 289.67 414.95"/><polygon class="cls-15" points="428.25 423.95 289.67 433.76 428.25 433.76 428.25 423.95"/><rect class="cls-16" x="142.41" y="123.58" width="433.11" height="264.03" rx="25.96"/><path class="cls-17" d="M177.94,134.35H540a23.37,23.37,0,0,1,23.37,23.37V337.52A23.36,23.36,0,0,1,540,360.89h-362a23.36,23.36,0,0,1-23.36-23.36V157.71a23.37,23.37,0,0,1,23.37-23.37Z"/><rect class="cls-18" x="340.79" y="372.09" width="36.34" height="6.97" rx="3.49"/><rect class="cls-19" x="377.13" y="438.02" width="101.42" height="7.19" rx="3.59"/><path class="cls-20" d="M951.09,281.69c21.67,0,50.14-8.15,58.94-10.84a2,2,0,0,1,2.7,1.79v60.28c0,46.57-60.7,84.33-60.7,84.33s-60.7-37.76-60.7-84.33V275.43a2,2,0,0,1,2.58-1.82C902.28,275.61,929.42,281.69,951.09,281.69Z" transform="translate(-588.34 -126)"/><path class="cls-5" d="M946.41,276.52c20.59,0,47.65-7.75,56-10.3a1.93,1.93,0,0,1,2.57,1.7V325.2c0,44.26-57.69,80.14-57.69,80.14s-57.68-35.88-57.68-80.14V270.57a1.93,1.93,0,0,1,2.45-1.73C900,270.75,925.82,276.52,946.41,276.52Z" transform="translate(-588.34 -126)"/><path class="cls-21" d="M947.3,285.94c15.45,0,34.66-5.06,44.31-9.06,2.88-1.19,6.14.73,6.14,3.63v46c0,38.71-50.45,70.08-50.45,70.08s-50.44-31.37-50.44-70.08v-44c0-2.78,3-4.7,5.87-3.74C912.28,282,931.71,285.94,947.3,285.94Z" transform="translate(-588.34 -126)"/><path class="cls-19" d="M947.84,298.41v85.92s-40.12-25.56-40.12-55.94V293.57a3.13,3.13,0,0,1,4.28-2.71C919.49,293.47,935.37,298.41,947.84,298.41Z" transform="translate(-588.34 -126)"/><path class="cls-19" d="M947.84,298.41v85.92s41.55-25.56,41.55-55.94v-34.9a3.14,3.14,0,0,0-4.24-2.72C977.38,293.34,960.46,298.41,947.84,298.41Z" transform="translate(-588.34 -126)"/><path class="cls-18" d="M932.07,319.09c.62.45,1.22.92,1.8,1.4s1.17.95,1.73,1.47,1.11,1,1.65,1.57c.27.27.56.54.81.81l.78.83c.52.55,1,1.11,1.53,1.67s1,1.16,1.45,1.74.94,1.19,1.4,1.79c.23.3.46.6.68.91s.45.6.66.92c.44.62.86,1.24,1.28,1.87s.82,1.28,1.22,1.92.78,1.3,1.15,2l.56,1c.18.33.35.67.53,1s.35.67.51,1l.49,1c.32.69.62,1.39.91,2.1s.56,1.43.81,2.16c.13.37.25.74.37,1.12l.18.57.18.63-8-.48c.17-.3.3-.54.46-.8l.45-.77c.3-.51.61-1,.92-1.52l1.87-3,3.76-5.92c1.27-2,2.57-3.9,3.92-5.8s2.75-3.78,4.18-5.62,2.94-3.64,4.49-5.39,3.16-3.46,4.83-5.1a68.11,68.11,0,0,1,5.24-4.66c.91-.74,1.85-1.43,2.81-2.1s1.95-1.29,3-1.87a.44.44,0,0,1,.59.16.43.43,0,0,1-.1.54c-.87.74-1.7,1.51-2.51,2.31s-1.59,1.61-2.35,2.45-1.49,1.7-2.21,2.57-1.4,1.77-2.09,2.67q-2,2.7-3.9,5.54c-.61.94-1.23,1.89-1.83,2.85s-1.18,1.92-1.76,2.9c-1.16,1.93-2.26,3.9-3.36,5.88s-2.14,4-3.17,6c-.51,1-1,2-1.51,3s-1,2-1.4,3.08-.88,2.07-1.3,3.11l-.63,1.56-.6,1.52-3.64,9.33-4.31-9.81L943,347.56c-.15-.32-.28-.64-.42-1s-.29-.64-.42-1l-.83-1.94-3.3-7.83c-.28-.66-.58-1.31-.85-2l-.41-1-.43-1c-.28-.67-.57-1.32-.84-2s-.58-1.33-.85-2-.55-1.35-.84-2-.55-1.35-.82-2-.57-1.39-.83-2.09-.54-1.42-.78-2.15a.46.46,0,0,1,.29-.57A.46.46,0,0,1,932.07,319.09Z" transform="translate(-588.34 -126)"/><g class="cls-22"><g class="cls-23"><path class="cls-24" d="M905.5,324.64c5.32,17.36,8.34,44.76,9.75,61-14.87-13.87-29.64-30.23-30.39-38.78-.93-10.69-2.75-41.52-2.43-62.95C888.57,291.17,899.88,306.32,905.5,324.64Z" transform="translate(-588.34 -126)"/><path class="cls-25" d="M933.35,359.32c-4.37-20.24-16.91-70.76-50.49-86.43.49-6.67,1.41-11,2.95-11.07,6.15-.38,13.42,3.17,13.42,3.17,32.81-.19,48.84,49.58,50.33,58.16s-.18,84.3-3.35,86.33c-.69.44-3.93-1.48-8.59-4.94C937.5,395.43,936.82,375.45,933.35,359.32Z" transform="translate(-588.34 -126)"/></g></g><path class="cls-26" d="M1163.86,297.46h-105.5a3,3,0,0,0-3,3v15.4a3,3,0,0,0,3,3h105.5Z" transform="translate(-588.34 -126)"/><rect class="cls-21" x="459.92" y="164.4" width="149.67" height="21.45" rx="10.6"/><rect class="cls-11" x="463.83" y="168.26" width="141.85" height="13.72" rx="6.86"/><path class="cls-21" d="M1068.28,305.37a1.14,1.14,0,0,1-1.13-1.13v-6.82a1.14,1.14,0,1,1,2.27,0v6.82A1.14,1.14,0,0,1,1068.28,305.37Z" transform="translate(-588.34 -126)"/><path class="cls-21" d="M1072.08,303.33a1.14,1.14,0,0,1-1.57.32l-5.7-3.75a1.13,1.13,0,0,1-.32-1.57,1.14,1.14,0,0,1,1.57-.33l5.7,3.75A1.14,1.14,0,0,1,1072.08,303.33Z" transform="translate(-588.34 -126)"/><path class="cls-21" d="M1064.55,303.42a1.15,1.15,0,0,1,.28-1.59l5.61-3.88a1.14,1.14,0,0,1,1.3,1.87l-5.61,3.88A1.13,1.13,0,0,1,1064.55,303.42Z" transform="translate(-588.34 -126)"/><path class="cls-21" d="M1084.26,305.37a1.14,1.14,0,0,1-1.14-1.13v-6.82a1.14,1.14,0,1,1,2.28,0v6.82A1.14,1.14,0,0,1,1084.26,305.37Z" transform="translate(-588.34 -126)"/><path class="cls-21" d="M1088.06,303.33a1.15,1.15,0,0,1-1.58.32l-5.69-3.75A1.13,1.13,0,0,1,1082,298l5.7,3.75A1.14,1.14,0,0,1,1088.06,303.33Z" transform="translate(-588.34 -126)"/><path class="cls-21" d="M1080.52,303.42a1.15,1.15,0,0,1,.29-1.59l5.61-3.88a1.14,1.14,0,1,1,1.29,1.87l-5.61,3.88A1.14,1.14,0,0,1,1080.52,303.42Z" transform="translate(-588.34 -126)"/><path class="cls-21" d="M1100.23,305.37a1.14,1.14,0,0,1-1.13-1.13v-6.82a1.14,1.14,0,1,1,2.27,0v6.82A1.14,1.14,0,0,1,1100.23,305.37Z" transform="translate(-588.34 -126)"/><path class="cls-21" d="M1104,303.33a1.14,1.14,0,0,1-1.57.32l-5.7-3.75a1.13,1.13,0,0,1-.32-1.57A1.14,1.14,0,0,1,1098,298l5.7,3.75A1.14,1.14,0,0,1,1104,303.33Z" transform="translate(-588.34 -126)"/><path class="cls-21" d="M1096.5,303.42a1.15,1.15,0,0,1,.28-1.59l5.61-3.88a1.15,1.15,0,0,1,1.58.29,1.13,1.13,0,0,1-.29,1.58l-5.6,3.88A1.13,1.13,0,0,1,1096.5,303.42Z" transform="translate(-588.34 -126)"/><path class="cls-21" d="M1116.21,305.37a1.14,1.14,0,0,1-1.14-1.13v-6.82a1.14,1.14,0,0,1,2.28,0v6.82A1.14,1.14,0,0,1,1116.21,305.37Z" transform="translate(-588.34 -126)"/><path class="cls-21" d="M1120,303.33a1.15,1.15,0,0,1-1.58.32l-5.69-3.75A1.13,1.13,0,0,1,1114,298l5.7,3.75A1.14,1.14,0,0,1,1120,303.33Z" transform="translate(-588.34 -126)"/><path class="cls-21" d="M1112.47,303.42a1.15,1.15,0,0,1,.29-1.59l5.61-3.88a1.14,1.14,0,1,1,1.29,1.87l-5.61,3.88A1.14,1.14,0,0,1,1112.47,303.42Z" transform="translate(-588.34 -126)"/><path class="cls-21" d="M1132.18,305.37a1.14,1.14,0,0,1-1.13-1.13v-6.82a1.14,1.14,0,1,1,2.27,0v6.82A1.14,1.14,0,0,1,1132.18,305.37Z" transform="translate(-588.34 -126)"/><path class="cls-21" d="M1136,303.33a1.14,1.14,0,0,1-1.57.32l-5.7-3.75a1.13,1.13,0,0,1-.32-1.57A1.14,1.14,0,0,1,1130,298l5.7,3.75A1.14,1.14,0,0,1,1136,303.33Z" transform="translate(-588.34 -126)"/><path class="cls-21" d="M1128.45,303.42a1.15,1.15,0,0,1,.28-1.59l5.61-3.88a1.15,1.15,0,0,1,1.58.29,1.13,1.13,0,0,1-.29,1.58l-5.6,3.88A1.13,1.13,0,0,1,1128.45,303.42Z" transform="translate(-588.34 -126)"/><rect class="cls-21" x="555.71" y="177.1" width="11.07" height="1.51" rx="0.76"/><rect class="cls-21" x="572.01" y="177.1" width="11.07" height="1.51" rx="0.76"/><rect class="cls-21" x="587.55" y="177.1" width="11.07" height="1.51" rx="0.76"/><rect class="cls-11" x="775.07" y="341.68" width="55.12" height="55.12" rx="3.03" transform="translate(-614.35 549.7) rotate(-45)"/><rect class="cls-19" x="776.98" y="343.59" width="51.3" height="51.3" rx="2.82" transform="translate(-614.35 549.7) rotate(-45)"/><rect class="cls-11" x="176.72" y="240.08" width="75.13" height="46.96" rx="9.86"/><path class="cls-27" d="M840.2,368.69c0-1.44.12-1.43-1.32-2.34a3.93,3.93,0,0,0-1.5-.29c-74.52,0-70-.13-71,.29-1.39.88-1.31.84-1.31,2.34.32.64-2.1-1,35.42,22.92a4.37,4.37,0,0,0,4.29,0C842.29,367.65,839.87,369.33,840.2,368.69Z" transform="translate(-588.34 -126)"/><ellipse class="cls-28" cx="229.79" cy="205.84" rx="15.61" ry="10.58"/><rect class="cls-28" x="220.56" y="209.61" width="18.47" height="12.21" rx="6.1"/><path class="cls-5" d="M816.57,330.2c0,2.59-1.72,7.29-3.84,7.29s-3.82-2.13-4.54-4.62c-1-3.52,1.18-5,3.21-5.56C813.83,326.61,816.57,327.61,816.57,330.2Z" transform="translate(-588.34 -126)"/><path class="cls-5" d="M819.21,330.2c0,2.59,1.71,7.29,3.83,7.29s3.82-2.13,4.54-4.62c1-3.52-1.17-5-3.21-5.56C822,326.61,819.21,327.61,819.21,330.2Z" transform="translate(-588.34 -126)"/><path class="cls-5" d="M818.13,336.24c1.72,0,2.27,5.71,1.49,5.94s-2.43.47-3,0S816.88,336.24,818.13,336.24Z" transform="translate(-588.34 -126)"/><ellipse class="cls-28" cx="198.82" cy="174.35" rx="16.42" ry="11.13"/><rect class="cls-28" x="189.11" y="178.32" width="19.43" height="12.84" rx="6.42"/><path class="cls-5" d="M785.51,298.63c0,2.73-1.8,7.67-4,7.67s-4-2.24-4.77-4.86c-1.07-3.7,1.23-5.22,3.37-5.84C782.63,294.86,785.51,295.9,785.51,298.63Z" transform="translate(-588.34 -126)"/><path class="cls-5" d="M788.29,298.63c0,2.73,1.81,7.67,4,7.67s4-2.24,4.78-4.86c1.07-3.7-1.24-5.22-3.38-5.84C791.17,294.86,788.29,295.9,788.29,298.63Z" transform="translate(-588.34 -126)"/><path class="cls-5" d="M787.16,305c1.81,0,2.39,6,1.56,6.26s-2.55.49-3.21,0S785.84,305,787.16,305Z" transform="translate(-588.34 -126)"/><path class="cls-28" d="M854.45,295.11c0,3.27-3.92,5.93-8.75,5.93s-8.75-2.66-8.75-5.93,3.92-5.93,8.75-5.93S854.45,291.83,854.45,295.11Z" transform="translate(-588.34 -126)"/><rect class="cls-28" x="252.18" y="171.22" width="10.35" height="6.84" rx="3.42"/><path class="cls-5" d="M844.82,294.19c0,1.45-1,4.08-2.15,4.08s-2.14-1.19-2.54-2.58a2.29,2.29,0,0,1,1.8-3.12C843.29,292.18,844.82,292.74,844.82,294.19Z" transform="translate(-588.34 -126)"/><path class="cls-5" d="M846.3,294.19c0,1.45,1,4.08,2.15,4.08s2.14-1.19,2.54-2.58a2.29,2.29,0,0,0-1.8-3.12C847.84,292.18,846.3,292.74,846.3,294.19Z" transform="translate(-588.34 -126)"/><path class="cls-5" d="M845.7,297.57c1,0,1.27,3.2.83,3.33a2.45,2.45,0,0,1-1.71,0C844.47,300.64,845,297.57,845.7,297.57Z" transform="translate(-588.34 -126)"/><path class="cls-28" d="M796.9,355.32c0,3.27-3.92,5.93-8.75,5.93s-8.75-2.66-8.75-5.93,3.92-5.93,8.75-5.93S796.9,352.05,796.9,355.32Z" transform="translate(-588.34 -126)"/><rect class="cls-28" x="194.63" y="231.43" width="10.35" height="6.84" rx="3.42"/><path class="cls-5" d="M787.27,354.4c0,1.46-1,4.09-2.15,4.09s-2.14-1.19-2.54-2.59a2.29,2.29,0,0,1,1.8-3.11C785.74,352.39,787.27,353,787.27,354.4Z" transform="translate(-588.34 -126)"/><path class="cls-5" d="M788.75,354.4c0,1.46,1,4.09,2.15,4.09s2.14-1.19,2.54-2.59a2.29,2.29,0,0,0-1.8-3.11C790.28,352.39,788.75,353,788.75,354.4Z" transform="translate(-588.34 -126)"/><path class="cls-5" d="M788.15,357.78c1,0,1.27,3.21.83,3.34a2.57,2.57,0,0,1-1.71,0C786.92,360.85,787.45,357.78,788.15,357.78Z" transform="translate(-588.34 -126)"/><ellipse class="cls-28" cx="226.25" cy="129.15" rx="20.45" ry="13.86"/><path class="cls-28" d="M222.15,134.09h8.2a8,8,0,0,1,8,8v0a8,8,0,0,1-8,8h-8.2a8,8,0,0,1-8-8v0a8,8,0,0,1,8-8Z"/><path class="cls-5" d="M812.54,253c0,3.39-2.24,9.54-5,9.54s-5-2.78-5.94-6.05c-1.34-4.61,1.54-6.5,4.2-7.27C809,248.3,812.54,249.61,812.54,253Z" transform="translate(-588.34 -126)"/><path class="cls-5" d="M816,253c0,3.39,2.25,9.54,5,9.54s5-2.78,6-6.05c1.33-4.61-1.54-6.5-4.21-7.27C819.59,248.3,816,249.61,816,253Z" transform="translate(-588.34 -126)"/><path class="cls-5" d="M814.59,260.91c2.26,0,3,7.48,1.95,7.79s-3.18.62-4,0S813,260.91,814.59,260.91Z" transform="translate(-588.34 -126)"/><path class="cls-28" d="M834,402.59H808.7a.77.77,0,0,1-.76-.77.76.76,0,0,1,.76-.76H834a.77.77,0,0,1,.76.76A.77.77,0,0,1,834,402.59Z" transform="translate(-588.34 -126)"/><path class="cls-28" d="M834,405.87H808.7a.76.76,0,0,1,0-1.52H834a.76.76,0,0,1,0,1.52Z" transform="translate(-588.34 -126)"/><path class="cls-29" d="M814.71,272.37a23.45,23.45,0,1,1,23.45-23.44A23.46,23.46,0,0,1,814.71,272.37Zm0-43.46a20,20,0,1,0,20,20A20,20,0,0,0,814.71,228.91Z" transform="translate(-588.34 -126)"/><path class="cls-29" d="M814.71,258.62a9.7,9.7,0,1,1,9.7-9.69A9.7,9.7,0,0,1,814.71,258.62Zm0-16a6.27,6.27,0,1,0,6.27,6.27A6.27,6.27,0,0,0,814.71,242.66Z" transform="translate(-588.34 -126)"/><path class="cls-29" d="M842.55,250.64H786.64a1.72,1.72,0,1,1,0-3.43h55.91a1.72,1.72,0,0,1,0,3.43Z" transform="translate(-588.34 -126)"/><path class="cls-29" d="M814.71,277a1.72,1.72,0,0,1-1.71-1.72V222.08a1.72,1.72,0,0,1,3.43,0v53.18A1.72,1.72,0,0,1,814.71,277Z" transform="translate(-588.34 -126)"/><path class="cls-29" d="M776.54,334.1a20.71,20.71,0,1,1,20.71-20.71A20.73,20.73,0,0,1,776.54,334.1Zm0-38a17.28,17.28,0,1,0,17.28,17.27A17.3,17.3,0,0,0,776.54,296.12Z" transform="translate(-588.34 -126)"/><path class="cls-29" d="M776.54,322.08a8.69,8.69,0,1,1,8.69-8.69A8.7,8.7,0,0,1,776.54,322.08Zm0-13.94a5.26,5.26,0,1,0,5.26,5.25A5.26,5.26,0,0,0,776.54,308.14Z" transform="translate(-588.34 -126)"/><path class="cls-29" d="M800.86,315.11H752a1.72,1.72,0,1,1,0-3.43h48.85a1.72,1.72,0,1,1,0,3.43Z" transform="translate(-588.34 -126)"/><path class="cls-29" d="M776.54,338.12a1.71,1.71,0,0,1-1.71-1.71V289.94a1.71,1.71,0,1,1,3.42,0v46.47A1.71,1.71,0,0,1,776.54,338.12Z" transform="translate(-588.34 -126)"/><rect class="cls-30" x="405.54" y="287.65" width="108.76" height="49.15" rx="7.22"/><rect class="cls-11" x="408.52" y="300.56" width="102.81" height="33.93" rx="5.83"/><rect class="cls-11" x="410.03" y="291.27" width="4.26" height="3.83" rx="1.92"/><rect class="cls-11" x="417.77" y="291.27" width="4.26" height="3.83" rx="1.92"/><rect class="cls-11" x="425.52" y="291.27" width="4.26" height="3.83" rx="1.92"/><path class="cls-30" d="M1095.49,434H1041.1a1.63,1.63,0,0,1,0-3.25h54.39a1.63,1.63,0,0,1,0,3.25Z" transform="translate(-588.34 -126)"/><path class="cls-30" d="M1054.58,459.1H1000.2a1.63,1.63,0,1,1,0-3.25h54.38a1.63,1.63,0,1,1,0,3.25Z" transform="translate(-588.34 -126)"/><rect class="cls-30" x="470.08" y="329.85" width="6.74" height="3.25" rx="1.63"/><rect class="cls-30" x="478.56" y="329.85" width="6.74" height="3.25" rx="1.63"/><path class="cls-30" d="M1096,441.09H1006a1.11,1.11,0,0,1,0-2.21H1096a1.11,1.11,0,0,1,0,2.21Z" transform="translate(-588.34 -126)"/><path class="cls-30" d="M1096,445.85H1006a1.1,1.1,0,0,1,0-2.2H1096a1.1,1.1,0,0,1,0,2.2Z" transform="translate(-588.34 -126)"/><path class="cls-21" d="M1042.82,358.9H1035a6.13,6.13,0,0,1-6.12-6.12V345a6.12,6.12,0,0,1,6.12-6.11h7.83a6.12,6.12,0,0,1,6.11,6.11v7.83A6.12,6.12,0,0,1,1042.82,358.9ZM1035,342.27a2.69,2.69,0,0,0-2.69,2.68v7.83a2.7,2.7,0,0,0,2.69,2.69h7.83a2.69,2.69,0,0,0,2.68-2.69V345a2.68,2.68,0,0,0-2.68-2.68Z" transform="translate(-588.34 -126)"/><g class="cls-31"><path class="cls-21" d="M1042.82,392.44H1035a6.41,6.41,0,0,1-6.4-6.4v-7.83a6.41,6.41,0,0,1,6.4-6.4h7.83a6.41,6.41,0,0,1,6.4,6.4V386A6.41,6.41,0,0,1,1042.82,392.44ZM1035,375.81a2.41,2.41,0,0,0-2.4,2.4V386a2.41,2.41,0,0,0,2.4,2.4h7.83a2.41,2.41,0,0,0,2.4-2.4v-7.83a2.41,2.41,0,0,0-2.4-2.4Z" transform="translate(-588.34 -126)"/></g><path class="cls-29" d="M1039.39,354.49h-.08a1.7,1.7,0,0,1-1.28-.67l-5.62-7.33a1.72,1.72,0,1,1,2.72-2.09l4.39,5.73,12.31-13.19a1.72,1.72,0,1,1,2.51,2.34L1040.64,354A1.68,1.68,0,0,1,1039.39,354.49Z" transform="translate(-588.34 -126)"/><path class="cls-29" d="M1039.39,387.75h-.08a1.7,1.7,0,0,1-1.28-.67l-5.62-7.34a1.71,1.71,0,1,1,2.72-2.08l4.39,5.73,12.31-13.19a1.71,1.71,0,1,1,2.51,2.33l-13.7,14.68A1.68,1.68,0,0,1,1039.39,387.75Z" transform="translate(-588.34 -126)"/><path class="cls-21" d="M1062,347h59.1a1.87,1.87,0,0,0,0-3.74H1062a1.87,1.87,0,1,0,0,3.74Z" transform="translate(-588.34 -126)"/><path class="cls-21" d="M1062,354.37h44a1.87,1.87,0,0,0,0-3.74h-44a1.87,1.87,0,1,0,0,3.74Z" transform="translate(-588.34 -126)"/><path class="cls-21" d="M1062,380.34h59.1a1.88,1.88,0,0,0,0-3.75H1062a1.88,1.88,0,0,0,0,3.75Z" transform="translate(-588.34 -126)"/><path class="cls-21" d="M1062,387.66h51.78a1.87,1.87,0,1,0,0-3.74H1062a1.87,1.87,0,1,0,0,3.74Z" transform="translate(-588.34 -126)"/><rect class="cls-30" x="284.81" y="293.18" width="66.6" height="38.08" rx="1.09"/><rect class="cls-11" x="286.27" y="294.86" width="63.68" height="34.73" rx="1.02"/><rect class="cls-30" x="288.03" y="296.99" width="60.16" height="30.47" rx="1.15"/><circle class="cls-11" cx="318.11" cy="312.23" r="10.57"/><circle class="cls-30" cx="906.45" cy="438.23" r="9.1" transform="translate(-316.65 1093.75) rotate(-76.72)"/><polygon class="cls-11" points="322.6 311.74 319.27 313.66 315.94 315.58 315.94 311.74 315.94 307.9 319.27 309.82 322.6 311.74"/><path class="cls-26" d="M922.91,431.9H873.15v24.27a1.1,1.1,0,0,0,1.1,1.1H924V433A1.09,1.09,0,0,0,922.91,431.9Z" transform="translate(-588.34 -126)"/><rect class="cls-30" x="263.26" y="307.92" width="66.6" height="38.08" rx="1.09"/><rect class="cls-11" x="264.72" y="309.59" width="63.68" height="34.73" rx="1.02"/><rect class="cls-30" x="266.47" y="311.72" width="60.16" height="30.47" rx="1.15"/><path class="cls-11" d="M895.47,453a10.58,10.58,0,1,1-10.58-10.58A10.58,10.58,0,0,1,895.47,453Z" transform="translate(-588.34 -126)"/><path class="cls-30" d="M894,453a9.11,9.11,0,1,1-9.11-9.11A9.11,9.11,0,0,1,894,453Z" transform="translate(-588.34 -126)"/><polygon class="cls-11" points="301.04 326.47 297.71 328.39 294.38 330.31 294.38 326.47 294.38 322.63 297.71 324.55 301.04 326.47"/><path class="cls-26" d="M832.18,480.23V467.14a3.3,3.3,0,0,0-3.29-3.29H730.75v19.67h98.14A3.3,3.3,0,0,0,832.18,480.23Z" transform="translate(-588.34 -126)"/><path class="cls-26" d="M828.89,434.61H730.75v19.68h98.14a3.3,3.3,0,0,0,3.29-3.3V437.91A3.31,3.31,0,0,0,828.89,434.61Z" transform="translate(-588.34 -126)"/><rect class="cls-5" x="132.14" y="303.12" width="106.21" height="19.68" rx="9.84"/><rect class="cls-11" x="137.2" y="305.9" width="96.08" height="14.13" rx="7.06"/><rect class="cls-5" x="132.14" y="332.35" width="106.21" height="19.68" rx="9.84"/><rect class="cls-11" x="137.2" y="335.13" width="96.08" height="14.13" rx="7.06"/><path class="cls-5" d="M737.23,439a2.28,2.28,0,1,1-2.27-2.27A2.27,2.27,0,0,1,737.23,439Zm8.3-2.27A2.27,2.27,0,1,0,747.8,439,2.27,2.27,0,0,0,745.53,436.69Zm10.57,0a2.27,2.27,0,1,0,2.28,2.27A2.27,2.27,0,0,0,756.1,436.69Zm10.57,0A2.27,2.27,0,1,0,769,439,2.27,2.27,0,0,0,766.67,436.69Zm10.57,0a2.27,2.27,0,1,0,2.28,2.27A2.27,2.27,0,0,0,777.24,436.69Zm10.58,0a2.27,2.27,0,1,0,2.27,2.27A2.27,2.27,0,0,0,787.82,436.69Z" transform="translate(-588.34 -126)"/><path class="cls-5" d="M737.23,468a2.28,2.28,0,1,1-2.27-2.28A2.27,2.27,0,0,1,737.23,468Zm8.3-2.28A2.28,2.28,0,1,0,747.8,468,2.28,2.28,0,0,0,745.53,465.72Zm10.57,0a2.28,2.28,0,1,0,2.28,2.28A2.28,2.28,0,0,0,756.1,465.72Zm10.57,0A2.28,2.28,0,1,0,769,468,2.28,2.28,0,0,0,766.67,465.72Zm10.57,0a2.28,2.28,0,1,0,2.28,2.28A2.28,2.28,0,0,0,777.24,465.72Zm10.58,0a2.28,2.28,0,1,0,2.27,2.28A2.28,2.28,0,0,0,787.82,465.72Z" transform="translate(-588.34 -126)"/><path class="cls-5" d="M809.45,442.56c-4.21,0-7.54-3.07-7.68-3.2a.87.87,0,0,1-.27-.63.85.85,0,0,1,.27-.62c.14-.13,3.47-3.2,7.68-3.2s7.54,3.07,7.68,3.2a.85.85,0,0,1,.27.62.87.87,0,0,1-.27.63C817,439.49,813.66,442.56,809.45,442.56Zm-5.72-3.83a8.81,8.81,0,0,0,11.44,0,8.81,8.81,0,0,0-11.44,0Z" transform="translate(-588.34 -126)"/><path class="cls-5" d="M809.45,442.19a3.46,3.46,0,1,1,3.46-3.46A3.46,3.46,0,0,1,809.45,442.19Zm0-5.21a1.75,1.75,0,1,0,1.75,1.75A1.76,1.76,0,0,0,809.45,437Z" transform="translate(-588.34 -126)"/><rect class="cls-5" x="212.05" y="339.15" width="8.7" height="6.25" rx="3.13"/><path class="cls-5" d="M816.38,470.18h-15a.86.86,0,1,1,0-1.71h14.1v-2.24a.86.86,0,0,1,1.71,0v3.1A.85.85,0,0,1,816.38,470.18Z" transform="translate(-588.34 -126)"/><path class="cls-5" d="M814.37,470.05a.86.86,0,0,1-.85-.86v-2.54a.86.86,0,1,1,1.71,0v2.54A.86.86,0,0,1,814.37,470.05Z" transform="translate(-588.34 -126)"/><path class="cls-5" d="M811.24,470.05a.87.87,0,0,1-.86-.86v-3.45a.86.86,0,0,1,1.72,0v3.45A.87.87,0,0,1,811.24,470.05Z" transform="translate(-588.34 -126)"/><path class="cls-11" d="M802.07,469.33a.64.64,0,0,1-.64-.64v-1a.64.64,0,1,1,1.28,0v1A.64.64,0,0,1,802.07,469.33Z" transform="translate(-588.34 -126)"/><path class="cls-32" d="M722.9,579S666.77,540,643,562.49c-19,18,14.7,39,57.74,33.36,30.31-4,33.74,1.81,39.05,1.68,39.49-3,92.71-14.84,66.81-33.4-35.28-25.29-59.14,1.52-71.44,8.19Z" transform="translate(-588.34 -126)"/><path class="cls-33" d="M795.47,563.19c-14.75-3-71,17.8-71,17.8s-48.94-14.75-60.65-16.16-17.09,3-17.09,3,5.52-6.22,11.94-6.79,15.69-2.1,15.69-2.1,93.66-4.45,106.07-1.64S795.47,563.19,795.47,563.19Z" transform="translate(-588.34 -126)"/><path class="cls-34" d="M715.88,487.33c-2.23.35-36.83,15.44-37.25,21.76s9.48,57.61,28.63,64.29,40.58,0,40.58,0,22.48-55.5,15.8-66-36.88-20-36.88-20Z" transform="translate(-588.34 -126)"/><path class="cls-35" d="M690.45,499.27C657.39,517,649.28,549,658,556c6.12,4.94,29.22,15.86,49.24,15.16a327.47,327.47,0,0,1,38.82,1.18s34.34-7,41.19-17.28-12.15-43.72-29.19-53.38S690.45,499.27,690.45,499.27Z" transform="translate(-588.34 -126)"/><path class="cls-36" d="M722,507.35a8.34,8.34,0,0,1-8.31-8.32v-28a8.32,8.32,0,0,1,16.63,0v28A8.34,8.34,0,0,1,722,507.35Z" transform="translate(-588.34 -126)"/><path class="cls-37" d="M722,462.74a8.34,8.34,0,0,0-8.31,8.31v22.88c4.9,4.1,9.65,1.95,16.63-3.46V471.05A8.34,8.34,0,0,0,722,462.74Z" transform="translate(-588.34 -126)"/><path class="cls-36" d="M740.21,472.18c-1.37,2.79-3.59,4.34-5,3.46s-1.37-3.86,0-6.65,3.58-4.33,5-3.45S741.57,469.4,740.21,472.18Z" transform="translate(-588.34 -126)"/><path class="cls-36" d="M708.05,469.2c1.58,2.54,1.88,5.61.67,6.85s-3.46.2-5-2.34-1.88-5.6-.68-6.85S706.47,466.66,708.05,469.2Z" transform="translate(-588.34 -126)"/><ellipse class="cls-36" cx="134" cy="346.01" rx="14.3" ry="18.41"/><path class="cls-29" d="M753.51,517.57c9.37,5,17.53,23.92,17.53,23.92s-21.08,3.28-25.45,6.56.63-1.25,3.13-10.3S753.51,517.57,753.51,517.57Z" transform="translate(-588.34 -126)"/><path class="cls-29" d="M688.3,516.2c2.19,10,12.65,37.89,12.65,37.89s-9.69-11-20-11.66-14.12-.78-14.05,1.72c0,.49,1.71-11.09,9.67-18.27A121.65,121.65,0,0,1,688.3,516.2Z" transform="translate(-588.34 -126)"/><path class="cls-18" d="M751.09,579.1H694.53a4.67,4.67,0,0,1-4.6-3.89l-6.82-40.7a4.67,4.67,0,0,1,4.6-5.44h70.2a4.67,4.67,0,0,1,4.6,5.44l-6.82,40.7A4.68,4.68,0,0,1,751.09,579.1Z" transform="translate(-588.34 -126)"/><path class="cls-38" d="M751.09,579.1H694.53a4.62,4.62,0,0,1-4.6-3.75l-6.82-39.23a4.55,4.55,0,0,1,4.6-5.24h70.2a4.55,4.55,0,0,1,4.6,5.24l-6.82,39.23A4.63,4.63,0,0,1,751.09,579.1Z" transform="translate(-588.34 -126)"/><path class="cls-33" d="M730.28,595.13c-.34,0-36.53-9.11-44.61-2.44S712.72,599.48,719,598,730.28,595.13,730.28,595.13Z" transform="translate(-588.34 -126)"/><path class="cls-33" d="M738.35,596.76A27.71,27.71,0,0,1,756.27,592c10.18,1,19,3.28,10.18,6a64.61,64.61,0,0,1-22.12,2.75A7.66,7.66,0,0,1,738.35,596.76Z" transform="translate(-588.34 -126)"/><path class="cls-33" d="M717.77,446.06c-9.28,2.81-6,29,4.57,28.1s11-12.17,10.29-19.49S727.36,443.15,717.77,446.06Z" transform="translate(-588.34 -126)"/><path class="cls-33" d="M714.44,465.44c-2.59-2.48-6.14,5.31-4.74,8.74s-.56,5.41,1.34,9.1-3.49-2.34-4.25-6.76-1.18-12-2.26-15.5.06-9.42,4.85-10.66,5.92-3.44,7.75-3.55,10.55.75,14.86,3.12,6.67,5.92,6.35,11.31-1.73,19.16-3,21.42-2,1.73-1.57.43,1.79-9,.71-11.84-.54-9.69-3.34-10.23-2.15,4.24-5.49,4.59A96.73,96.73,0,0,1,714.44,465.44Z" transform="translate(-588.34 -126)"/><path class="cls-33" d="M1132.63,581s-2.25,8.69-9.91,10.89-15.13,6.46-4.37,6.59c11.81.14,18.58-.41,23.48-1.24s1.7-9.47.92-13.59S1132.63,581,1132.63,581Z" transform="translate(-588.34 -126)"/><path class="cls-33" d="M1195.37,575.37s1.51,16-2.33,17.36-8.24,4.67-2.75,4.67,12.29,1.3,14.07-4.67c2.17-7.27,7.07-8.5,5.32-12.21s-7-10.58-7-10.58Z" transform="translate(-588.34 -126)"/><path class="cls-32" d="M1115.24,407.06,1130.4,584.7s7.88,3.64,13.56,4.19,17.42-77.69,16.42-92.48,10.26-61.78,7.65-77S1115.24,407.06,1115.24,407.06Z" transform="translate(-588.34 -126)"/><path class="cls-33" d="M1145.58,408.07c-1.07-.14-2.15-.27-3.23-.38l-26.19,10.14,4.83,56.61c12.55,27.59,26.32,52.64,33.86,69.48,3.44-20,6-40.63,5.53-47.51-.48-7.13,1.88-21.72,4.17-36.63Z" transform="translate(-588.34 -126)"/><path class="cls-32" d="M1122.72,436.06c14.7,65.34,72.49,145,72.42,145s10.81-1.88,11.36-6.82-6.17-54.15-20.87-68.46-15.71-82.22-15.71-82.22Z" transform="translate(-588.34 -126)"/><path class="cls-29" d="M1157.38,344.72c16.53,16.63,27.13,45.22,27.28,52.3s-19.07,19.7-19.07,19.7Z" transform="translate(-588.34 -126)"/><polygon class="cls-36" points="550.43 182.02 556.98 214.6 539.07 233.88 536.69 194.37 550.43 182.02"/><path class="cls-39" d="M1145.32,330.44s8.45,3,17.85,26.83,15.93,82.67,15.93,82.67-18.06,15.34-43.92,15.33c-16.48,0-24.8-3.71-24.8-3.71s-1.65-55.42,0-75.43S1137.16,329.94,1145.32,330.44Z" transform="translate(-588.34 -126)"/><path class="cls-37" d="M1131.9,335.44c5.32-6.2,7.29-15.67,8-21.7l-1-5.15-1.33.52L1125,320.37l1.23,20.33A32.65,32.65,0,0,0,1131.9,335.44Z" transform="translate(-588.34 -126)"/><path class="cls-36" d="M1134.68,315.2c-2,9.7-9.73,16.28-17.14,14.71s-11.75-10.7-9.7-20.4,9.73-16.28,17.14-14.71S1136.74,305.5,1134.68,315.2Z" transform="translate(-588.34 -126)"/><path class="cls-40" d="M1142.79,323.08l5.61,9.48-29.74,22.23s2.24-10.3,2.84-14.09S1142.32,322.28,1142.79,323.08Z" transform="translate(-588.34 -126)"/><path class="cls-16" d="M1107.57,288.21c-12.49,3.93-2.28,19.67,1.74,19.81s5.47-3.59,8.77-2.73,6.4-5,8.42-3.72.73,13.18,0,15.2,2.56,2.2,2.56,2.2,1.34-8.43,3.42-7.88,3.61,6.41,6.59,7.88l3,1.46s1.83-12.71,4.57-15.14,1-10.85-2.87-12.5-4.84-9.16-10.23-9.7-9.78,3.11-16.92,2.19S1111.07,287.11,1107.57,288.21Z" transform="translate(-588.34 -126)"/><path class="cls-36" d="M1137.83,313.15c-1,2.42-3.31,3.76-5.1,3s-2.41-3.34-1.39-5.75,3.32-3.76,5.11-3S1138.86,310.74,1137.83,313.15Z" transform="translate(-588.34 -126)"/><path class="cls-29" d="M1151.4,348.17s-30.64,34.07-41.68,44.61c-.14,9.82-.07,21.25.08,31.42,6-2.95,22.58-11.54,32-20.66C1153.51,392.28,1158.72,366.47,1151.4,348.17Z" transform="translate(-588.34 -126)"/><path class="cls-36" d="M1073,390s-7.32-9.08-10.25-8.21a15.41,15.41,0,0,1-6.59.88c-2.56-.14-2.74,3.56.92,10.22s13.54,8,15.92,7.88S1073,390,1073,390Z" transform="translate(-588.34 -126)"/><path class="cls-41" d="M1148,340.7c11.85,3.15,8,33.19,1.31,45.59-4.8,8.91-20.83,18-30.63,20.55s-48.68-5.07-48.68-5.07-1.56-14,1.4-14,34.44,1.52,43.86-7S1133.67,336.89,1148,340.7Z" transform="translate(-588.34 -126)"/><path class="cls-29" d="M1063.57,388a1.7,1.7,0,0,1-1.36-.67l-6.35-8.31a1.72,1.72,0,1,1,2.73-2.09l6.34,8.32a1.71,1.71,0,0,1-1.36,2.75Z" transform="translate(-588.34 -126)"/></g></g></svg>