<svg id="Layer_1" data-name="Layer 1" xmlns="http://www.w3.org/2000/svg" viewBox="0 0 255.05 360"><defs><style>.cls-1{fill:#e44d26;}.cls-2{fill:#f16529;}.cls-3{fill:#ebebeb;}.cls-4{fill:#fff;}</style></defs><polygon class="cls-1" points="23.21 331.08 0 70.75 255.05 70.75 231.81 331.05 127.37 360 23.21 331.08"/><polygon class="cls-2" points="127.52 337.87 211.92 314.47 231.78 92.03 127.52 92.03 127.52 337.87"/><polygon class="cls-3" points="127.52 188.59 85.27 188.59 82.36 155.89 127.52 155.89 127.52 123.96 127.41 123.96 47.46 123.96 48.23 132.53 56.07 220.52 127.52 220.52 127.52 188.59"/><polygon class="cls-3" points="127.52 271.51 127.38 271.55 91.82 261.95 89.55 236.48 72.27 236.48 57.5 236.48 61.97 286.62 127.38 304.77 127.52 304.73 127.52 271.51"/><path d="M146.21,70h16.22V86h14.85V70H193.5v48.55H177.28V102.29H162.43v16.26H146.21V70Z" transform="translate(-122.48 -70)"/><path d="M214.84,86.1H200.55V70h44.81V86.1H231.07v32.45H214.84V86.1Z" transform="translate(-122.48 -70)"/><path d="M252.47,70h16.92L279.8,87.06,290.19,70h16.93v48.55H291V94.48L279.8,111.75h-.28L268.35,94.48v24.07H252.47Z" transform="translate(-122.48 -70)"/><path d="M315.19,70h16.23v32.5h22.82v16H315.19Z" transform="translate(-122.48 -70)"/><polygon class="cls-4" points="127.41 188.59 127.41 220.52 166.73 220.52 163.02 261.93 127.41 271.54 127.41 304.76 192.87 286.62 193.35 281.22 200.85 197.16 201.63 188.59 193.03 188.59 127.41 188.59"/><polygon class="cls-4" points="127.41 123.96 127.41 143.79 127.41 155.82 127.41 155.89 204.44 155.89 204.44 155.89 204.54 155.89 205.18 148.72 206.63 132.53 207.4 123.96 127.41 123.96"/></svg>