<svg id="Layer_1" data-name="Layer 1" xmlns="http://www.w3.org/2000/svg" viewBox="0 0 330.5 365"><defs><style>.cls-1{fill:#c63d14;}.cls-2{fill:#fff;}</style></defs><path class="cls-1" d="M394.56,247.21a34,34,0,0,0-34-34,35.26,35.26,0,0,0-3.57.18L403.67,75.8H205.37L252,213.31c-.68-.05-1.37-.07-2.06-.07a34,34,0,0,0-10.32,66.35,148.63,148.63,0,0,1-26.71,33.62,136.17,136.17,0,0,1-47.61,29.55c-20.75-10.66-30.54-34.36-21.7-55.14,1-2.34,2-4.72,3-7.09a34,34,0,1,0-27.25-5.26c-8.41,19.15-20.77,39.18-24.62,62.4-4.61,27.84,0,57.38,24.06,74.06,56.06,38.86,116.91-24.08,181.07-39.9,23.25-5.74,48.78-4.81,69.26-16.68a58,58,0,0,0,28.41-40.26A60.48,60.48,0,0,0,386.66,269,33.84,33.84,0,0,0,394.56,247.21Zm-110.68.12v-.12a34,34,0,0,0-16.38-29.07l37.09-75,37.15,75.79a33.94,33.94,0,0,0-15.13,28.27c0,.25,0,.49,0,.74Z" transform="translate(-84.75 -67.5)"/><path class="cls-2" d="M402.85,247.21a42.32,42.32,0,0,0-34.45-41.53L415.25,67.5H193.8L240.72,206a42.25,42.25,0,0,0-13.1,77.15,141.53,141.53,0,0,1-20.44,24.06A128.16,128.16,0,0,1,166,333.63c-15-9.44-21.39-27.25-14.79-42.76l.52-1.21,1-2.28a42.3,42.3,0,1,0-43.54-9.84c-1.41,3-2.89,6.07-4.41,9.2-7.12,14.62-15.19,31.18-18.24,49.58-6,36.53,3.72,65.74,27.52,82.23a75,75,0,0,0,43.87,13.95c27.79,0,55.91-14,83.41-27.62,19.8-9.84,40.28-20,60.51-25,7.52-1.85,15.27-3,23.47-4.15,16.26-2.35,33.07-4.77,48-13.4a66.33,66.33,0,0,0,32.42-46,68.5,68.5,0,0,0-9-47.1A41.94,41.94,0,0,0,402.85,247.21Zm-16.59,0a25.68,25.68,0,1,1-25.68-25.68A25.71,25.71,0,0,1,386.26,247.21ZM392.1,84.09l-41.37,122a42.4,42.4,0,0,0-5.24,1.62l-40.87-83.37-41,82.88a42,42,0,0,0-5.47-1.48L216.94,84.09ZM249.9,221.53a25.68,25.68,0,1,1-25.67,25.68A25.71,25.71,0,0,1,249.9,221.53Zm-111.09.25a25.68,25.68,0,1,1-25.68,25.67A25.71,25.71,0,0,1,138.81,221.78Zm250.5,91.7A49.76,49.76,0,0,1,364.93,348c-12.12,7-26.65,9.11-42,11.33-8.24,1.19-16.76,2.42-25.08,4.47-22,5.42-43.31,16-63.92,26.25-41.24,20.48-76.85,38.17-110.44,14.89-24.6-17-23.46-48.59-20.59-65.88,2.65-16,9.83-30.76,16.78-45,1.2-2.46,2.36-4.88,3.51-7.28a42.36,42.36,0,0,0,10.92,2.74c-7.06,23.33,4,48.69,27.39,60.68l3.19,1.64,3.38-1.2a143.71,143.71,0,0,0,50.52-31.34,157.24,157.24,0,0,0,25-30.23,42.32,42.32,0,0,0,48.61-41.8A42.18,42.18,0,0,0,278,215.65l26.57-53.72,26.83,54.75a42.24,42.24,0,0,0,53.3,65.23A51.53,51.53,0,0,1,389.31,313.48Z" transform="translate(-84.75 -67.5)"/></svg>