<svg id="Layer_1" data-name="Layer 1" xmlns="http://www.w3.org/2000/svg" viewBox="0 0 365 346.51"><defs><style>.cls-1{fill:#482b8e;}</style></defs><path class="cls-1" d="M320.41,318.75a26.09,26.09,0,0,0-2.79-52h-.93a26,26,0,0,0-25.08,26.94A26.66,26.66,0,0,0,299,310.85c-15.79,31.12-39.94,53.88-76.17,72.92-24.62,13-50.17,17.66-75.71,14.4-20.91-2.78-37.16-12.07-47.38-27.4-14.86-22.76-16.26-47.38-3.72-72,8.83-17.65,22.76-30.65,31.59-37.16-1.86-6-4.65-16.25-6-23.69C54.26,286.7,61.23,352.65,81.66,383.77,97,407,128.11,421.4,162.48,421.4a114.31,114.31,0,0,0,27.87-3.25C249.81,406.53,294.86,371.23,320.41,318.75Zm81.74-57.6c-35.3-41.34-87.32-64.1-146.77-64.1H248a25.53,25.53,0,0,0-22.76-13.94h-.93a26,26,0,0,0,.93,52h.93a26.18,26.18,0,0,0,22.76-15.8h8.36c35.3,0,68.74,10.22,98.93,30.2,23.23,15.32,39.95,35.3,49.24,59.45,7.89,19.51,7.43,38.55-.93,54.81-13,24.62-34.84,38.09-63.64,38.09a118.81,118.81,0,0,1-45.52-9.75c-5.1,4.64-14.39,12.07-20.9,16.72,20,9.29,40.41,14.4,59.92,14.4,44.59,0,77.57-24.62,90.11-49.24C437.92,347.08,437,300.63,402.15,261.15ZM166.2,326.64a26.08,26.08,0,0,0,26,25.08h.93a26,26,0,0,0-.93-52h-.93a7.81,7.81,0,0,0-3.25.47c-19-31.59-26.94-66-24.15-103.12,1.86-27.87,11.14-52,27.4-72,13.47-17.19,39.48-25.55,57.13-26,49.24-.93,70.14,60.38,71.53,85,6,1.4,16.26,4.65,23.23,7-5.58-75.25-52-114.27-96.62-114.27-41.8,0-80.35,30.2-95.68,74.79-21.36,59.45-7.43,116.59,18.58,161.64A20.9,20.9,0,0,0,166.2,326.64Z" transform="translate(-67.5 -76.74)"/></svg>