<svg id="Layer_1" data-name="Layer 1" xmlns="http://www.w3.org/2000/svg" viewBox="0 0 365 365"><defs><style>.cls-1{fill:#007acc;}.cls-2{fill:#fff;}</style></defs><polygon class="cls-1" points="0 182.5 0 365 182.5 365 365 365 365 182.5 365 0 182.5 0 0 0 0 182.5"/><path class="cls-2" d="M148.22,251.21l-.12,15h47.51v135h33.6v-135h47.51V251.5c0-8.11-.18-14.89-.41-15.06s-29.08-.35-64.13-.29l-63.79.17Z" transform="translate(-67.5 -67.5)"/><path class="cls-2" d="M362,235.9a45.39,45.39,0,0,1,22.83,13.15c3.36,3.59,8.34,10.14,8.74,11.7.12.46-15.75,11.13-25.37,17.09-.35.23-1.74-1.27-3.3-3.59-4.7-6.84-9.62-9.79-17.15-10.31-11.07-.76-18.2,5-18.14,14.71a13.39,13.39,0,0,0,1.57,6.84c2.43,5,6.95,8.05,21.14,14.19,26.13,11.24,37.31,18.66,44.27,29.2,7.76,11.77,9.5,30.54,4.23,44.5-5.8,15.18-20.17,25.49-40.39,28.91-6.25,1.1-21.08.93-27.8-.29-14.66-2.61-28.57-9.85-37.14-19.35-3.36-3.71-9.91-13.38-9.5-14.08a26.71,26.71,0,0,1,3.36-2.14c1.62-.93,7.76-4.46,13.55-7.82l10.49-6.09,2.2,3.25c3.07,4.69,9.79,11.12,13.85,13.26,11.64,6.15,27.63,5.28,35.51-1.79a13.44,13.44,0,0,0,4.75-10.95c0-4.23-.52-6.08-2.72-9.27-2.84-4.06-8.63-7.47-25.09-14.6-18.82-8.11-26.94-13.15-34.35-21.15a48,48,0,0,1-10-18.25c-1.39-5.15-1.74-18.07-.64-23.29,3.88-18.19,17.61-30.88,37.43-34.64C340.76,233.87,355.7,234.33,362,235.9Z" transform="translate(-67.5 -67.5)"/></svg>