<svg id="Layer_1" data-name="Layer 1" xmlns="http://www.w3.org/2000/svg" viewBox="0 0 365 413"><defs><style>.cls-1{fill:#fff;}.cls-2{fill:#8ed6fb;}.cls-3{fill:#1c78c0;}</style></defs><polygon class="cls-1" points="182.5 0 365 103.23 365 309.77 182.5 413 0 309.77 0 103.23 182.5 0"/><path class="cls-2" d="M399.93,346.11,256.06,427.58V364.22l89.67-49.38Zm9.84-8.89V167l-52.61,30.37v109.5ZM99.52,346.11l143.87,81.4V364.15l-89.67-49.31Zm-9.84-8.89V167l52.61,30.37v109.5ZM95.8,156,243.39,72.49v61.3l-94.56,52-.75.41Zm307.78,0L256.06,72.49v61.3l94.49,52.06.75.41Z" transform="translate(-67.5 -43.5)"/><path class="cls-3" d="M243.39,349.76,155,301.07V204.72l88.43,51Zm12.67,0,88.43-48.63V204.72l-88.43,51Zm-95.18-156.2,88.84-48.82,88.78,48.82L249.72,244.8Z" transform="translate(-67.5 -43.5)"/></svg>